<?xml version="1.0" encoding="UTF-8"?>
<svg id="Layer_1" data-name="Layer 1" xmlns="http://www.w3.org/2000/svg" viewBox="0 0 1280 554" preserveAspectRatio="none">
  <defs>
    <style>
      .cls-1 {
        fill: #ef3f32;
      }

      .cls-2 {
        fill: #323a4c;
      }

      .cls-3 {
        fill: #ccebf5;
      }

      .cls-4 {
        fill: #4e7bbe;
      }
    </style>
  </defs>
  <rect class="cls-3" x=".03" y=".24" width="1279" height="554"/>
  <polygon class="cls-1" points="931.5 389.5 59 378 59 222 936 229 1161.19 426.88 1201.11 389 1222.87 521.14 1063.19 507.14 1109 472 931.5 389.5"/>
  <g>
    <path class="cls-3" d="M94.37,247.4h-15.14v-10.35h41.98v10.35h-15.14v42.73h-11.69v-42.73Z"/>
    <path class="cls-3" d="M137.7,237.05h9.67l23.09,53.08h-13.19l-4.57-11.25h-20.62l-4.42,11.25h-12.89l22.94-53.08Zm4.5,15.44l-6.45,16.49h12.97l-6.52-16.49Z"/>
    <path class="cls-3" d="M175.78,237.05h19.72c2.75,0,5.35,.25,7.8,.75,2.45,.5,4.58,1.36,6.41,2.59,1.82,1.23,3.27,2.87,4.35,4.95,1.07,2.07,1.61,4.69,1.61,7.83s-.5,5.7-1.5,7.8c-1,2.1-2.37,3.77-4.12,5.02-1.75,1.25-3.82,2.14-6.22,2.66-2.4,.52-5,.79-7.8,.79h-8.55v20.69h-11.7v-53.08Zm11.7,22.49h7.8c1.05,0,2.06-.1,3.04-.3,.97-.2,1.85-.54,2.62-1.01,.77-.47,1.4-1.12,1.87-1.95,.47-.82,.71-1.86,.71-3.11,0-1.35-.31-2.44-.94-3.26-.63-.82-1.42-1.46-2.4-1.91s-2.06-.74-3.26-.86c-1.2-.12-2.35-.19-3.45-.19h-6v12.59Z"/>
    <path class="cls-3" d="M360.2,250.02c-.95-1.2-2.24-2.09-3.86-2.66-1.62-.57-3.16-.86-4.61-.86-.85,0-1.72,.1-2.62,.3-.9,.2-1.75,.51-2.55,.94-.8,.43-1.45,.99-1.95,1.69-.5,.7-.75,1.55-.75,2.55,0,1.6,.6,2.82,1.8,3.67,1.2,.85,2.71,1.57,4.54,2.17,1.82,.6,3.79,1.2,5.88,1.8,2.1,.6,4.06,1.45,5.88,2.55,1.82,1.1,3.34,2.57,4.54,4.42,1.2,1.85,1.8,4.32,1.8,7.42s-.55,5.52-1.65,7.72c-1.1,2.2-2.59,4.02-4.46,5.47-1.87,1.45-4.05,2.52-6.52,3.22-2.47,.7-5.09,1.05-7.83,1.05-3.45,0-6.65-.52-9.6-1.57-2.95-1.05-5.7-2.75-8.25-5.1l8.32-9.15c1.2,1.6,2.71,2.84,4.54,3.71,1.82,.88,3.71,1.31,5.66,1.31,.95,0,1.91-.11,2.89-.34,.97-.22,1.85-.56,2.62-1.01,.77-.45,1.4-1.02,1.87-1.72,.47-.7,.71-1.52,.71-2.47,0-1.6-.61-2.86-1.84-3.79-1.22-.92-2.76-1.71-4.61-2.36-1.85-.65-3.85-1.3-6-1.95-2.15-.65-4.15-1.52-6-2.62-1.85-1.1-3.39-2.55-4.61-4.35-1.23-1.8-1.84-4.17-1.84-7.12s.56-5.35,1.69-7.5c1.12-2.15,2.62-3.95,4.5-5.4,1.87-1.45,4.04-2.54,6.48-3.26,2.45-.72,4.97-1.09,7.57-1.09,3,0,5.9,.43,8.7,1.27,2.8,.85,5.32,2.27,7.57,4.27l-8.02,8.77Z"/>
    <path class="cls-3" d="M371.44,237.05h12.75l8.47,34.03h.15l11.09-34.03h10.87l11.02,34.93h.15l8.92-34.93h11.84l-15.52,53.08h-10.42l-11.69-36.73h-.15l-11.69,36.73h-10.05l-15.74-53.08Z"/>
    <path class="cls-3" d="M451.81,237.05h11.69v53.08h-11.69v-53.08Z"/>
    <path class="cls-3" d="M474.14,237.05h19.72c2.75,0,5.35,.25,7.8,.75,2.45,.5,4.58,1.36,6.41,2.59,1.82,1.23,3.27,2.87,4.35,4.95,1.07,2.07,1.61,4.69,1.61,7.83s-.5,5.7-1.5,7.8c-1,2.1-2.37,3.77-4.12,5.02-1.75,1.25-3.82,2.14-6.22,2.66-2.4,.52-5,.79-7.8,.79h-8.55v20.69h-11.7v-53.08Zm11.7,22.49h7.8c1.05,0,2.06-.1,3.04-.3,.97-.2,1.85-.54,2.62-1.01,.77-.47,1.4-1.12,1.87-1.95,.47-.82,.71-1.86,.71-3.11,0-1.35-.31-2.44-.94-3.26-.63-.82-1.42-1.46-2.4-1.91s-2.06-.74-3.26-.86c-1.2-.12-2.35-.19-3.45-.19h-6v12.59Z"/>
    <path class="cls-3" d="M521.82,237.05h36.06v10.8h-24.36v9.9h23.01v10.79h-23.01v10.8h25.71v10.79h-37.41v-53.08Z"/>
    <path class="cls-3" d="M97.15,345.49l-19.94-30.44h14.54l11.25,19.87,11.92-19.87h13.87l-19.94,30.44v22.64h-11.7v-22.64Z"/>
    <path class="cls-3" d="M129.83,341.59c0-4.25,.71-8.1,2.14-11.54,1.42-3.45,3.41-6.38,5.96-8.81,2.55-2.42,5.57-4.29,9.07-5.59,3.5-1.3,7.32-1.95,11.47-1.95s7.97,.65,11.47,1.95c3.5,1.3,6.52,3.16,9.07,5.59,2.55,2.42,4.54,5.36,5.96,8.81,1.42,3.45,2.14,7.3,2.14,11.54s-.71,8.1-2.14,11.54c-1.42,3.45-3.41,6.38-5.96,8.81-2.55,2.42-5.57,4.29-9.07,5.58-3.5,1.3-7.32,1.95-11.47,1.95s-7.97-.65-11.47-1.95c-3.5-1.3-6.52-3.16-9.07-5.58-2.55-2.42-4.54-5.36-5.96-8.81-1.42-3.45-2.14-7.3-2.14-11.54Zm12.14,0c0,2.5,.39,4.79,1.16,6.86,.77,2.07,1.89,3.87,3.34,5.4,1.45,1.53,3.19,2.71,5.21,3.56,2.02,.85,4.29,1.27,6.78,1.27s4.76-.42,6.79-1.27c2.02-.85,3.76-2.04,5.21-3.56,1.45-1.52,2.56-3.32,3.34-5.4,.77-2.07,1.16-4.36,1.16-6.86s-.39-4.72-1.16-6.82c-.78-2.1-1.89-3.91-3.34-5.44-1.45-1.52-3.19-2.71-5.21-3.56-2.02-.85-4.29-1.27-6.79-1.27s-4.76,.43-6.78,1.27c-2.02,.85-3.76,2.04-5.21,3.56-1.45,1.52-2.56,3.34-3.34,5.44-.78,2.1-1.16,4.37-1.16,6.82Z"/>
    <path class="cls-3" d="M239.8,347.66c0,3.15-.48,6.05-1.42,8.7-.95,2.65-2.36,4.95-4.24,6.9-1.87,1.95-4.21,3.47-7.01,4.57-2.8,1.1-6.02,1.65-9.67,1.65s-6.95-.55-9.75-1.65-5.13-2.62-7.01-4.57c-1.87-1.95-3.29-4.25-4.24-6.9-.95-2.65-1.42-5.55-1.42-8.7v-32.61h11.7v32.16c0,1.65,.26,3.17,.79,4.57,.52,1.4,1.26,2.61,2.21,3.64,.95,1.02,2.09,1.82,3.41,2.4,1.32,.57,2.76,.86,4.31,.86s2.97-.29,4.27-.86c1.3-.57,2.42-1.37,3.37-2.4,.95-1.02,1.69-2.24,2.21-3.64,.52-1.4,.79-2.92,.79-4.57v-32.16h11.69v32.61Z"/>
    <path class="cls-3" d="M250.6,315.05h20.54c2.7,0,5.26,.26,7.68,.79,2.42,.52,4.55,1.4,6.37,2.62,1.82,1.23,3.27,2.87,4.35,4.95,1.07,2.07,1.61,4.66,1.61,7.76,0,3.75-.97,6.93-2.92,9.56-1.95,2.62-4.8,4.29-8.55,4.98l13.49,22.42h-14.02l-11.1-21.22h-5.77v21.22h-11.7v-53.08Zm11.7,21.97h6.9c1.05,0,2.16-.04,3.34-.11,1.17-.07,2.24-.3,3.19-.67,.95-.38,1.74-.96,2.36-1.76,.62-.8,.94-1.92,.94-3.37,0-1.35-.28-2.42-.82-3.22-.55-.8-1.25-1.41-2.1-1.84-.85-.42-1.82-.71-2.92-.86s-2.17-.23-3.22-.23h-7.65v12.07Z"/>
    <path class="cls-3" d="M356.07,328.85c-1.15-1.4-2.56-2.47-4.24-3.22-1.67-.75-3.61-1.12-5.81-1.12s-4.24,.43-6.11,1.27c-1.88,.85-3.5,2.04-4.87,3.56-1.38,1.52-2.45,3.34-3.22,5.44-.78,2.1-1.16,4.37-1.16,6.82s.39,4.79,1.16,6.86c.77,2.07,1.84,3.87,3.19,5.4,1.35,1.53,2.94,2.71,4.76,3.56,1.82,.85,3.79,1.27,5.88,1.27,2.4,0,4.52-.5,6.37-1.5,1.85-1,3.37-2.4,4.57-4.2l9.75,7.27c-2.25,3.15-5.1,5.47-8.55,6.97-3.45,1.5-7,2.25-10.65,2.25-4.15,0-7.97-.65-11.47-1.95-3.5-1.3-6.52-3.16-9.07-5.58-2.55-2.42-4.54-5.36-5.96-8.81-1.42-3.45-2.14-7.3-2.14-11.54s.71-8.1,2.14-11.54c1.42-3.45,3.41-6.38,5.96-8.81,2.55-2.42,5.57-4.29,9.07-5.59,3.5-1.3,7.32-1.95,11.47-1.95,1.5,0,3.06,.14,4.69,.41,1.62,.28,3.22,.71,4.8,1.31s3.09,1.4,4.54,2.4c1.45,1,2.75,2.22,3.9,3.67l-9,7.35Z"/>
    <path class="cls-3" d="M390.19,315.05h9.67l23.09,53.08h-13.19l-4.57-11.25h-20.62l-4.42,11.25h-12.89l22.94-53.08Zm4.5,15.44l-6.45,16.49h12.97l-6.52-16.49Z"/>
    <path class="cls-3" d="M428.27,315.05h20.54c2.7,0,5.26,.26,7.68,.79,2.42,.52,4.55,1.4,6.37,2.62,1.82,1.23,3.27,2.87,4.35,4.95,1.07,2.07,1.61,4.66,1.61,7.76,0,3.75-.97,6.93-2.92,9.56-1.95,2.62-4.8,4.29-8.55,4.98l13.49,22.42h-14.02l-11.1-21.22h-5.77v21.22h-11.7v-53.08Zm11.7,21.97h6.9c1.05,0,2.16-.04,3.34-.11,1.17-.07,2.24-.3,3.19-.67,.95-.38,1.74-.96,2.36-1.76,.62-.8,.94-1.92,.94-3.37,0-1.35-.28-2.42-.82-3.22-.55-.8-1.25-1.41-2.1-1.84-.85-.42-1.82-.71-2.92-.86s-2.17-.23-3.22-.23h-7.65v12.07Z"/>
    <path class="cls-3" d="M476.85,315.05h17.54c4.25,0,8.28,.48,12.11,1.42,3.82,.95,7.16,2.49,10.01,4.61,2.85,2.12,5.11,4.89,6.78,8.28,1.67,3.4,2.51,7.52,2.51,12.37,0,4.3-.81,8.08-2.44,11.36-1.62,3.27-3.81,6.02-6.56,8.25-2.75,2.22-5.92,3.91-9.52,5.06-3.6,1.15-7.37,1.72-11.32,1.72h-19.12v-53.08Zm11.7,42.28h6.07c2.7,0,5.21-.27,7.53-.82,2.32-.55,4.34-1.46,6.04-2.74,1.7-1.27,3.04-2.95,4.01-5.02,.97-2.07,1.46-4.61,1.46-7.61,0-2.6-.49-4.86-1.46-6.78-.97-1.92-2.29-3.51-3.94-4.76-1.65-1.25-3.59-2.19-5.81-2.81-2.22-.62-4.56-.94-7.01-.94h-6.9v31.49Z"/>
    <path class="cls-4" d="M94.37,419.4h-15.14v-10.35h41.98v10.35h-15.14v42.73h-11.69v-42.73Z"/>
    <path class="cls-4" d="M124.28,435.59c0-4.25,.71-8.1,2.14-11.54,1.42-3.45,3.41-6.38,5.96-8.81,2.55-2.42,5.57-4.29,9.07-5.59,3.5-1.3,7.32-1.95,11.47-1.95s7.97,.65,11.47,1.95c3.5,1.3,6.52,3.16,9.07,5.59,2.55,2.42,4.54,5.36,5.96,8.81,1.42,3.45,2.14,7.3,2.14,11.54s-.71,8.1-2.14,11.54c-1.42,3.45-3.41,6.38-5.96,8.81-2.55,2.42-5.57,4.29-9.07,5.58s-7.32,1.95-11.47,1.95-7.97-.65-11.47-1.95-6.52-3.16-9.07-5.58c-2.55-2.42-4.54-5.36-5.96-8.81-1.42-3.45-2.14-7.3-2.14-11.54Zm12.14,0c0,2.5,.39,4.79,1.16,6.86,.77,2.07,1.89,3.87,3.34,5.4,1.45,1.53,3.19,2.71,5.21,3.56,2.02,.85,4.29,1.27,6.78,1.27s4.76-.42,6.79-1.27c2.02-.85,3.76-2.04,5.21-3.56,1.45-1.52,2.56-3.32,3.34-5.4,.77-2.07,1.16-4.36,1.16-6.86s-.39-4.72-1.16-6.82c-.78-2.1-1.89-3.91-3.34-5.44-1.45-1.52-3.19-2.71-5.21-3.56-2.02-.85-4.29-1.27-6.79-1.27s-4.76,.43-6.78,1.27c-2.02,.85-3.76,2.04-5.21,3.56-1.45,1.52-2.56,3.34-3.34,5.44-.78,2.1-1.16,4.37-1.16,6.82Z"/>
    <path class="cls-4" d="M259.74,458.38c-3.45,1.8-7.05,3.1-10.8,3.9-3.75,.8-7.57,1.2-11.47,1.2-4.15,0-7.97-.65-11.47-1.95s-6.52-3.16-9.07-5.58c-2.55-2.42-4.54-5.36-5.96-8.81-1.42-3.45-2.14-7.3-2.14-11.54s.71-8.1,2.14-11.54c1.42-3.45,3.41-6.38,5.96-8.81,2.55-2.42,5.57-4.29,9.07-5.59,3.5-1.3,7.32-1.95,11.47-1.95s8.16,.51,11.73,1.54c3.57,1.02,6.71,2.79,9.41,5.29l-8.25,9c-1.6-1.65-3.4-2.9-5.4-3.75-2-.85-4.5-1.27-7.5-1.27-2.5,0-4.76,.43-6.78,1.27-2.02,.85-3.76,2.04-5.21,3.56-1.45,1.52-2.56,3.34-3.34,5.44-.78,2.1-1.16,4.37-1.16,6.82s.39,4.79,1.16,6.86c.77,2.07,1.89,3.87,3.34,5.4,1.45,1.53,3.19,2.71,5.21,3.56,2.02,.85,4.29,1.27,6.78,1.27s4.75-.29,6.6-.86c1.85-.57,3.32-1.16,4.42-1.76v-8.62h-9.52v-10.8h20.77v27.74Z"/>
    <path class="cls-4" d="M270.46,409.05h36.06v10.8h-24.36v9.9h23.01v10.79h-23.01v10.8h25.71v10.79h-37.41v-53.08Z"/>
    <path class="cls-4" d="M327.51,419.4h-15.14v-10.35h41.98v10.35h-15.14v42.73h-11.69v-42.73Z"/>
    <path class="cls-4" d="M408.7,422.02c-.95-1.2-2.24-2.09-3.86-2.66-1.62-.57-3.16-.86-4.61-.86-.85,0-1.72,.1-2.62,.3-.9,.2-1.75,.51-2.55,.94-.8,.43-1.45,.99-1.95,1.69-.5,.7-.75,1.55-.75,2.55,0,1.6,.6,2.82,1.8,3.67,1.2,.85,2.71,1.57,4.54,2.17,1.82,.6,3.79,1.2,5.88,1.8,2.1,.6,4.06,1.45,5.88,2.55,1.82,1.1,3.34,2.57,4.54,4.42,1.2,1.85,1.8,4.32,1.8,7.42s-.55,5.52-1.65,7.72c-1.1,2.2-2.59,4.02-4.46,5.47-1.87,1.45-4.05,2.52-6.52,3.22-2.47,.7-5.09,1.05-7.83,1.05-3.45,0-6.65-.53-9.6-1.57-2.95-1.05-5.7-2.75-8.25-5.1l8.32-9.15c1.2,1.6,2.71,2.84,4.54,3.71,1.82,.88,3.71,1.31,5.66,1.31,.95,0,1.91-.11,2.89-.34,.97-.22,1.85-.56,2.62-1.01,.77-.45,1.4-1.02,1.87-1.72,.47-.7,.71-1.52,.71-2.47,0-1.6-.61-2.86-1.84-3.79-1.22-.92-2.76-1.71-4.61-2.36-1.85-.65-3.85-1.3-6-1.95-2.15-.65-4.15-1.52-6-2.62-1.85-1.1-3.39-2.55-4.61-4.35-1.23-1.8-1.84-4.17-1.84-7.12s.56-5.35,1.69-7.5c1.12-2.15,2.62-3.95,4.5-5.4,1.87-1.45,4.04-2.54,6.48-3.26,2.45-.72,4.97-1.09,7.57-1.09,3,0,5.9,.43,8.7,1.27,2.8,.85,5.32,2.27,7.57,4.27l-8.02,8.77Z"/>
    <path class="cls-4" d="M435.76,419.4h-15.14v-10.35h41.98v10.35h-15.14v42.73h-11.69v-42.73Z"/>
    <path class="cls-4" d="M479.09,409.05h9.67l23.09,53.08h-13.19l-4.57-11.25h-20.62l-4.42,11.25h-12.89l22.94-53.08Zm4.5,15.44l-6.45,16.49h12.97l-6.52-16.49Z"/>
    <path class="cls-4" d="M517.17,409.05h20.54c2.7,0,5.26,.26,7.68,.79,2.42,.52,4.55,1.4,6.37,2.62,1.82,1.23,3.27,2.87,4.35,4.95,1.07,2.07,1.61,4.66,1.61,7.76,0,3.75-.97,6.93-2.92,9.56-1.95,2.62-4.8,4.29-8.55,4.98l13.49,22.42h-14.02l-11.1-21.22h-5.77v21.22h-11.7v-53.08Zm11.7,21.97h6.9c1.05,0,2.16-.04,3.34-.11,1.17-.07,2.24-.3,3.19-.67,.95-.38,1.74-.96,2.36-1.76,.62-.8,.94-1.92,.94-3.37,0-1.35-.28-2.42-.82-3.22-.55-.8-1.25-1.41-2.1-1.84-.85-.42-1.82-.71-2.92-.86s-2.17-.23-3.22-.23h-7.65v12.07Z"/>
    <path class="cls-4" d="M574.67,419.4h-15.14v-10.35h41.98v10.35h-15.14v42.73h-11.69v-42.73Z"/>
    <path class="cls-4" d="M607.88,409.05h36.06v10.8h-24.36v9.9h23.01v10.79h-23.01v10.8h25.71v10.79h-37.41v-53.08Z"/>
    <path class="cls-4" d="M654.66,409.05h17.54c4.25,0,8.28,.48,12.11,1.42,3.82,.95,7.16,2.49,10.01,4.61,2.85,2.12,5.11,4.89,6.78,8.28,1.67,3.4,2.51,7.52,2.51,12.37,0,4.3-.81,8.08-2.44,11.36-1.62,3.27-3.81,6.02-6.56,8.25-2.75,2.23-5.92,3.91-9.52,5.06-3.6,1.15-7.37,1.72-11.32,1.72h-19.12v-53.08Zm11.7,42.28h6.07c2.7,0,5.21-.27,7.53-.82,2.32-.55,4.34-1.46,6.04-2.74,1.7-1.27,3.04-2.95,4.01-5.02,.97-2.07,1.46-4.61,1.46-7.61,0-2.6-.49-4.86-1.46-6.78-.97-1.92-2.29-3.51-3.94-4.76-1.65-1.25-3.59-2.19-5.81-2.81-2.22-.62-4.56-.94-7.01-.94h-6.9v31.49Z"/>
  </g>
  <g>
    <path class="cls-3" d="M239.65,271.01h-10.09v-4.92h10.09v4.92Z"/>
    <path class="cls-3" d="M242.07,264.24c0-2.32,.39-4.43,1.17-6.31,.78-1.89,1.87-3.49,3.26-4.82,1.39-1.33,3.05-2.34,4.96-3.05,1.91-.71,4-1.07,6.27-1.07s4.36,.36,6.27,1.07c1.91,.71,3.57,1.73,4.96,3.05,1.39,1.33,2.48,2.93,3.26,4.82,.78,1.89,1.17,3.99,1.17,6.31s-.39,4.43-1.17,6.31c-.78,1.89-1.87,3.49-3.26,4.82-1.39,1.33-3.05,2.34-4.96,3.05-1.91,.71-4,1.07-6.27,1.07s-4.36-.36-6.27-1.07c-1.91-.71-3.57-1.73-4.96-3.05s-2.48-2.93-3.26-4.82c-.78-1.89-1.17-3.99-1.17-6.31Zm6.64,0c0,1.37,.21,2.62,.64,3.75,.42,1.13,1.03,2.12,1.83,2.95,.79,.83,1.74,1.48,2.85,1.95s2.34,.7,3.71,.7,2.6-.23,3.71-.7c1.11-.46,2.06-1.11,2.85-1.95,.79-.83,1.4-1.82,1.82-2.95,.42-1.13,.64-2.38,.64-3.75s-.21-2.58-.64-3.73c-.42-1.15-1.03-2.14-1.82-2.97-.79-.83-1.74-1.48-2.85-1.95-1.11-.46-2.34-.7-3.71-.7s-2.6,.23-3.71,.7c-1.11,.47-2.06,1.11-2.85,1.95-.79,.83-1.4,1.82-1.83,2.97s-.64,2.39-.64,3.73Z"/>
    <path class="cls-3" d="M277.74,249.73h11.23c1.48,0,2.88,.14,4.2,.43,1.33,.29,2.49,.77,3.48,1.44,1,.67,1.79,1.57,2.38,2.71,.59,1.13,.88,2.55,.88,4.24,0,2.05-.53,3.79-1.6,5.23-1.07,1.44-2.62,2.34-4.67,2.73l7.38,12.26h-7.67l-6.07-11.6h-3.16v11.6h-6.4v-29.03Zm6.4,12.01h3.77c.57,0,1.18-.02,1.82-.06,.64-.04,1.22-.16,1.74-.37,.52-.21,.95-.53,1.29-.96,.34-.44,.51-1.05,.51-1.84,0-.74-.15-1.33-.45-1.76-.3-.44-.68-.77-1.15-1-.47-.23-1-.39-1.6-.47-.6-.08-1.19-.12-1.76-.12h-4.18v6.6Z"/>
    <path class="cls-3" d="M312.47,271.01h-10.09v-4.92h10.09v4.92Z"/>
  </g>
  <g>
    <path class="cls-2" d="M83.64,117.28h15.57c2.05,0,3.99,.2,5.82,.6,1.84,.4,3.45,1.06,4.83,1.99,1.38,.93,2.48,2.18,3.3,3.75,.81,1.57,1.22,3.53,1.22,5.88,0,2.84-.74,5.26-2.22,7.24-1.48,1.99-3.64,3.25-6.48,3.78l10.23,16.99h-10.63l-8.41-16.08h-4.38v16.08h-8.86v-40.23Zm8.86,16.65h5.23c.8,0,1.64-.03,2.53-.09,.89-.06,1.7-.23,2.42-.51s1.32-.73,1.79-1.34c.47-.61,.71-1.46,.71-2.56,0-1.02-.21-1.84-.63-2.44-.42-.61-.95-1.07-1.59-1.39-.64-.32-1.38-.54-2.22-.65-.83-.11-1.65-.17-2.44-.17h-5.8v9.15Z"/>
    <path class="cls-2" d="M120.8,117.28h27.33v8.18h-18.47v7.5h17.44v8.18h-17.44v8.18h19.49v8.18h-28.35v-40.23Z"/>
    <path class="cls-2" d="M156.6,117.28h26.99v8.18h-18.13v8.18h16.76v8.18h-16.76v15.68h-8.86v-40.23Z"/>
    <path class="cls-2" d="M189.84,117.28h8.86v40.23h-8.86v-40.23Z"/>
    <path class="cls-2" d="M207.11,117.28h8.86v32.05h16.42v8.18h-25.29v-40.23Z"/>
    <path class="cls-2" d="M237.62,117.28h8.86v32.05h16.42v8.18h-25.29v-40.23Z"/>
    <path class="cls-2" d="M294.5,140.35l-15.11-23.07h11.02l8.52,15.06,9.03-15.06h10.51l-15.11,23.07v17.16h-8.86v-17.16Z"/>
    <path class="cls-2" d="M319.28,137.4c0-3.22,.54-6.14,1.62-8.75,1.08-2.61,2.59-4.84,4.52-6.68,1.93-1.84,4.22-3.25,6.88-4.23,2.65-.98,5.55-1.48,8.69-1.48s6.04,.49,8.69,1.48c2.65,.99,4.94,2.4,6.88,4.23,1.93,1.84,3.44,4.06,4.52,6.68,1.08,2.61,1.62,5.53,1.62,8.75s-.54,6.14-1.62,8.75c-1.08,2.61-2.59,4.84-4.52,6.68-1.93,1.84-4.22,3.25-6.88,4.23-2.65,.98-5.55,1.48-8.69,1.48s-6.04-.49-8.69-1.48c-2.65-.98-4.94-2.4-6.88-4.23-1.93-1.84-3.44-4.06-4.52-6.68-1.08-2.61-1.62-5.53-1.62-8.75Zm9.21,0c0,1.9,.29,3.63,.88,5.2,.59,1.57,1.43,2.94,2.53,4.09,1.1,1.16,2.42,2.06,3.95,2.7,1.53,.64,3.25,.97,5.14,.97s3.61-.32,5.14-.97c1.53-.64,2.85-1.54,3.95-2.7,1.1-1.16,1.94-2.52,2.53-4.09,.59-1.57,.88-3.3,.88-5.2s-.29-3.58-.88-5.17c-.59-1.59-1.43-2.96-2.53-4.12-1.1-1.15-2.42-2.05-3.95-2.7-1.53-.64-3.25-.97-5.14-.97s-3.61,.32-5.14,.97c-1.53,.64-2.85,1.54-3.95,2.7-1.1,1.16-1.94,2.53-2.53,4.12-.59,1.59-.88,3.32-.88,5.17Z"/>
    <path class="cls-2" d="M402.63,142c0,2.39-.36,4.58-1.08,6.59-.72,2.01-1.79,3.75-3.21,5.23-1.42,1.48-3.19,2.63-5.31,3.47-2.12,.83-4.56,1.25-7.33,1.25s-5.27-.42-7.39-1.25c-2.12-.83-3.89-1.99-5.31-3.47-1.42-1.48-2.49-3.22-3.21-5.23-.72-2.01-1.08-4.21-1.08-6.59v-24.72h8.86v24.38c0,1.25,.2,2.41,.6,3.47,.4,1.06,.96,1.98,1.68,2.76,.72,.78,1.58,1.38,2.59,1.82,1,.44,2.09,.65,3.27,.65s2.25-.22,3.24-.65c.98-.44,1.84-1.04,2.56-1.82,.72-.78,1.28-1.69,1.68-2.76,.4-1.06,.6-2.22,.6-3.47v-24.38h8.86v24.72Z"/>
    <path class="cls-2" d="M410.82,117.28h15.57c2.05,0,3.99,.2,5.82,.6,1.84,.4,3.45,1.06,4.83,1.99s2.48,2.18,3.3,3.75c.81,1.57,1.22,3.53,1.22,5.88,0,2.84-.74,5.26-2.22,7.24-1.48,1.99-3.64,3.25-6.48,3.78l10.23,16.99h-10.63l-8.41-16.08h-4.38v16.08h-8.86v-40.23Zm8.86,16.65h5.23c.8,0,1.64-.03,2.53-.09,.89-.06,1.69-.23,2.42-.51,.72-.28,1.32-.73,1.79-1.34,.47-.61,.71-1.46,.71-2.56,0-1.02-.21-1.84-.62-2.44-.42-.61-.95-1.07-1.59-1.39-.65-.32-1.38-.54-2.22-.65-.83-.11-1.65-.17-2.44-.17h-5.8v9.15Z"/>
    <path class="cls-2" d="M484.34,127.11c-.72-.91-1.7-1.58-2.93-2.02-1.23-.44-2.4-.65-3.5-.65-.64,0-1.31,.08-1.99,.23-.68,.15-1.33,.39-1.93,.71-.61,.32-1.1,.75-1.48,1.28-.38,.53-.57,1.17-.57,1.93,0,1.21,.45,2.14,1.36,2.78,.91,.64,2.05,1.19,3.44,1.65s2.87,.91,4.46,1.36,3.08,1.1,4.46,1.93c1.38,.83,2.53,1.95,3.44,3.35,.91,1.4,1.36,3.28,1.36,5.63s-.42,4.19-1.25,5.85c-.83,1.67-1.96,3.05-3.38,4.15-1.42,1.1-3.07,1.91-4.94,2.44-1.88,.53-3.86,.8-5.94,.8-2.61,0-5.04-.4-7.27-1.19-2.24-.8-4.32-2.08-6.25-3.86l6.31-6.93c.91,1.21,2.05,2.15,3.44,2.81,1.38,.66,2.81,.99,4.29,.99,.72,0,1.45-.08,2.19-.26,.74-.17,1.4-.43,1.99-.77,.59-.34,1.06-.78,1.42-1.31,.36-.53,.54-1.16,.54-1.88,0-1.21-.46-2.17-1.39-2.87-.93-.7-2.09-1.3-3.5-1.79-1.4-.49-2.92-.98-4.55-1.48-1.63-.49-3.14-1.15-4.55-1.99-1.4-.83-2.57-1.93-3.49-3.3-.93-1.36-1.39-3.16-1.39-5.4s.43-4.05,1.28-5.68c.85-1.63,1.99-2.99,3.41-4.09,1.42-1.1,3.06-1.92,4.92-2.47,1.86-.55,3.77-.82,5.74-.82,2.27,0,4.47,.32,6.59,.97,2.12,.64,4.04,1.72,5.74,3.24l-6.08,6.65Z"/>
    <path class="cls-2" d="M494.91,137.4c0-3.22,.54-6.14,1.62-8.75s2.59-4.84,4.52-6.68c1.93-1.84,4.22-3.25,6.88-4.23,2.65-.98,5.55-1.48,8.69-1.48s6.04,.49,8.69,1.48c2.65,.99,4.94,2.4,6.88,4.23,1.93,1.84,3.44,4.06,4.52,6.68s1.62,5.53,1.62,8.75-.54,6.14-1.62,8.75c-1.08,2.61-2.59,4.84-4.52,6.68-1.93,1.84-4.22,3.25-6.88,4.23-2.65,.98-5.55,1.48-8.69,1.48s-6.04-.49-8.69-1.48c-2.65-.98-4.94-2.4-6.88-4.23-1.93-1.84-3.44-4.06-4.52-6.68-1.08-2.61-1.62-5.53-1.62-8.75Zm9.21,0c0,1.9,.29,3.63,.88,5.2,.59,1.57,1.43,2.94,2.53,4.09,1.1,1.16,2.42,2.06,3.95,2.7,1.53,.64,3.25,.97,5.14,.97s3.61-.32,5.14-.97c1.53-.64,2.85-1.54,3.95-2.7,1.1-1.16,1.94-2.52,2.53-4.09,.59-1.57,.88-3.3,.88-5.2s-.29-3.58-.88-5.17c-.59-1.59-1.43-2.96-2.53-4.12-1.1-1.15-2.42-2.05-3.95-2.7-1.53-.64-3.25-.97-5.14-.97s-3.61,.32-5.14,.97c-1.53,.64-2.85,1.54-3.95,2.7-1.1,1.16-1.94,2.53-2.53,4.12-.59,1.59-.88,3.32-.88,5.17Z"/>
    <path class="cls-2" d="M557.59,117.28h7.33l17.5,40.23h-10l-3.47-8.52h-15.63l-3.35,8.52h-9.77l17.39-40.23Zm3.41,11.71l-4.89,12.5h9.83l-4.94-12.5Z"/>
    <path class="cls-2" d="M586.45,117.28h14.94c2.08,0,4.05,.19,5.91,.57,1.86,.38,3.48,1.03,4.86,1.96,1.38,.93,2.48,2.18,3.3,3.75,.81,1.57,1.22,3.55,1.22,5.94s-.38,4.32-1.14,5.91c-.76,1.59-1.8,2.86-3.12,3.81-1.33,.95-2.9,1.62-4.72,2.02-1.82,.4-3.79,.6-5.91,.6h-6.48v15.68h-8.86v-40.23Zm8.86,17.05h5.91c.8,0,1.56-.08,2.3-.23,.74-.15,1.4-.41,1.99-.77,.59-.36,1.06-.85,1.42-1.48,.36-.62,.54-1.41,.54-2.36,0-1.02-.24-1.85-.71-2.47-.47-.62-1.08-1.11-1.82-1.45s-1.56-.56-2.47-.65c-.91-.09-1.78-.14-2.61-.14h-4.55v9.55Z"/>
    <path class="cls-2" d="M639.07,117.28h15c1.74,0,3.49,.12,5.26,.37,1.76,.25,3.34,.74,4.74,1.48,1.4,.74,2.54,1.77,3.41,3.1,.87,1.33,1.31,3.09,1.31,5.28s-.63,4.16-1.9,5.65c-1.27,1.5-2.95,2.57-5.03,3.21v.11c1.33,.19,2.53,.56,3.61,1.11,1.08,.55,2.01,1.25,2.78,2.1,.78,.85,1.37,1.85,1.79,2.98,.42,1.14,.62,2.35,.62,3.64,0,2.12-.45,3.89-1.36,5.31-.91,1.42-2.08,2.57-3.52,3.44-1.44,.87-3.06,1.5-4.86,1.88-1.8,.38-3.59,.57-5.37,.57h-16.48v-40.23Zm8.86,16.08h6.42c.68,0,1.35-.08,2.02-.23,.66-.15,1.26-.4,1.79-.74,.53-.34,.96-.8,1.28-1.36,.32-.57,.48-1.25,.48-2.05s-.18-1.52-.54-2.07c-.36-.55-.82-.98-1.39-1.28-.57-.3-1.21-.52-1.93-.65-.72-.13-1.42-.2-2.1-.2h-6.02v8.58Zm0,16.65h7.96c.68,0,1.37-.08,2.07-.23,.7-.15,1.33-.42,1.9-.8,.57-.38,1.03-.87,1.39-1.48,.36-.61,.54-1.34,.54-2.22,0-.95-.24-1.71-.71-2.3-.47-.59-1.07-1.03-1.79-1.34-.72-.3-1.5-.51-2.33-.62-.83-.11-1.61-.17-2.33-.17h-6.71v9.15Z"/>
    <path class="cls-2" d="M673.73,137.4c0-3.22,.54-6.14,1.62-8.75s2.59-4.84,4.52-6.68c1.93-1.84,4.22-3.25,6.88-4.23,2.65-.98,5.55-1.48,8.69-1.48s6.04,.49,8.69,1.48c2.65,.99,4.94,2.4,6.88,4.23,1.93,1.84,3.44,4.06,4.52,6.68s1.62,5.53,1.62,8.75-.54,6.14-1.62,8.75c-1.08,2.61-2.59,4.84-4.52,6.68-1.93,1.84-4.22,3.25-6.88,4.23-2.65,.98-5.55,1.48-8.69,1.48s-6.04-.49-8.69-1.48c-2.65-.98-4.94-2.4-6.88-4.23-1.93-1.84-3.44-4.06-4.52-6.68-1.08-2.61-1.62-5.53-1.62-8.75Zm9.21,0c0,1.9,.29,3.63,.88,5.2,.59,1.57,1.43,2.94,2.53,4.09,1.1,1.16,2.42,2.06,3.95,2.7,1.53,.64,3.25,.97,5.14,.97s3.61-.32,5.14-.97c1.53-.64,2.85-1.54,3.95-2.7,1.1-1.16,1.94-2.52,2.53-4.09,.59-1.57,.88-3.3,.88-5.2s-.29-3.58-.88-5.17c-.59-1.59-1.43-2.96-2.53-4.12-1.1-1.15-2.42-2.05-3.95-2.7-1.53-.64-3.25-.97-5.14-.97s-3.61,.32-5.14,.97c-1.53,.64-2.85,1.54-3.95,2.7-1.1,1.16-1.94,2.53-2.53,4.12-.59,1.59-.88,3.32-.88,5.17Z"/>
    <path class="cls-2" d="M730.95,125.13h-11.48v-7.84h31.82v7.84h-11.48v32.39h-8.86v-32.39Z"/>
    <path class="cls-2" d="M763.56,125.13h-11.48v-7.84h31.82v7.84h-11.48v32.39h-8.86v-32.39Z"/>
    <path class="cls-2" d="M788.73,117.28h8.86v32.05h16.42v8.18h-25.29v-40.23Z"/>
    <path class="cls-2" d="M819.25,117.28h27.33v8.18h-18.47v7.5h17.44v8.18h-17.44v8.18h19.49v8.18h-28.35v-40.23Z"/>
    <path class="cls-2" d="M874.59,127.11c-.72-.91-1.7-1.58-2.93-2.02-1.23-.44-2.4-.65-3.49-.65-.64,0-1.31,.08-1.99,.23-.68,.15-1.33,.39-1.93,.71-.61,.32-1.1,.75-1.48,1.28-.38,.53-.57,1.17-.57,1.93,0,1.21,.45,2.14,1.36,2.78,.91,.64,2.05,1.19,3.44,1.65,1.38,.45,2.87,.91,4.46,1.36,1.59,.45,3.08,1.1,4.46,1.93,1.38,.83,2.53,1.95,3.44,3.35,.91,1.4,1.36,3.28,1.36,5.63s-.42,4.19-1.25,5.85c-.83,1.67-1.96,3.05-3.38,4.15-1.42,1.1-3.07,1.91-4.94,2.44-1.88,.53-3.86,.8-5.94,.8-2.61,0-5.04-.4-7.27-1.19-2.24-.8-4.32-2.08-6.25-3.86l6.31-6.93c.91,1.21,2.05,2.15,3.44,2.81,1.38,.66,2.81,.99,4.29,.99,.72,0,1.45-.08,2.19-.26,.74-.17,1.4-.43,1.99-.77,.59-.34,1.06-.78,1.42-1.31,.36-.53,.54-1.16,.54-1.88,0-1.21-.46-2.17-1.39-2.87-.93-.7-2.09-1.3-3.49-1.79-1.4-.49-2.92-.98-4.55-1.48-1.63-.49-3.14-1.15-4.55-1.99-1.4-.83-2.57-1.93-3.49-3.3-.93-1.36-1.39-3.16-1.39-5.4s.43-4.05,1.28-5.68c.85-1.63,1.99-2.99,3.41-4.09,1.42-1.1,3.06-1.92,4.92-2.47,1.86-.55,3.77-.82,5.74-.82,2.27,0,4.47,.32,6.59,.97,2.12,.64,4.03,1.72,5.74,3.24l-6.08,6.65Z"/>
    <path class="cls-2" d="M904.14,117.28h8.86v15h17.22v-15h8.86v40.23h-8.86v-17.39h-17.22v17.39h-8.86v-40.23Z"/>
    <path class="cls-2" d="M947.61,117.28h27.33v8.18h-18.47v7.5h17.44v8.18h-17.44v8.18h19.49v8.18h-28.35v-40.23Z"/>
    <path class="cls-2" d="M983.06,117.28h15.57c2.05,0,3.99,.2,5.82,.6,1.84,.4,3.45,1.06,4.83,1.99s2.48,2.18,3.3,3.75c.81,1.57,1.22,3.53,1.22,5.88,0,2.84-.74,5.26-2.22,7.24-1.48,1.99-3.64,3.25-6.48,3.78l10.23,16.99h-10.63l-8.41-16.08h-4.38v16.08h-8.86v-40.23Zm8.86,16.65h5.23c.8,0,1.64-.03,2.53-.09,.89-.06,1.69-.23,2.41-.51,.72-.28,1.32-.73,1.79-1.34,.47-.61,.71-1.46,.71-2.56,0-1.02-.21-1.84-.62-2.44-.42-.61-.95-1.07-1.59-1.39-.64-.32-1.38-.54-2.22-.65-.83-.11-1.65-.17-2.44-.17h-5.8v9.15Z"/>
    <path class="cls-2" d="M1020.23,117.28h27.33v8.18h-18.47v7.5h17.44v8.18h-17.44v8.18h19.49v8.18h-28.35v-40.23Z"/>
    <path class="cls-2" d="M1058.98,152.63c0-.72,.13-1.4,.4-2.05,.26-.64,.63-1.2,1.11-1.68,.47-.47,1.03-.84,1.68-1.11,.64-.26,1.33-.4,2.05-.4s1.4,.13,2.05,.4c.64,.27,1.2,.63,1.68,1.11,.47,.47,.84,1.03,1.11,1.68,.26,.64,.4,1.33,.4,2.05s-.13,1.4-.4,2.05c-.27,.64-.63,1.2-1.11,1.68s-1.03,.84-1.68,1.11c-.64,.26-1.33,.4-2.05,.4s-1.4-.13-2.05-.4c-.64-.26-1.2-.63-1.68-1.11-.47-.47-.84-1.03-1.11-1.68-.27-.64-.4-1.33-.4-2.05Zm9.49-8.41h-8.52v-26.93h8.52v26.93Z"/>
  </g>
</svg>