<?xml version="1.0" encoding="UTF-8"?>
<svg id="Layer_1" data-name="Layer 1" xmlns="http://www.w3.org/2000/svg" viewBox="0 0 1280 554" preserveAspectRatio="none">
  <defs>
    <style>
      .cls-1 {
        fill: #ef3f32;
      }

      .cls-2 {
        fill: #ccebf5;
      }

      .cls-3 {
        fill: #3cb657;
      }

      .cls-4 {
        fill: #4e7bbe;
      }

      .cls-5 {
        fill: #323970;
        stroke: #231f20;
        stroke-miterlimit: 10;
      }
    </style>
  </defs>
  <rect class="cls-2" x="-.37" y="-.47" width="1279" height="554"/>
  <g>
    <path class="cls-4" d="M84.43,100.79l-19.94-30.44h14.54l11.25,19.87,11.92-19.87h13.87l-19.94,30.44v22.64h-11.7v-22.64Z"/>
    <path class="cls-4" d="M117.11,96.89c0-4.25,.71-8.1,2.14-11.54,1.42-3.45,3.41-6.38,5.96-8.81,2.55-2.42,5.57-4.29,9.07-5.59,3.5-1.3,7.32-1.95,11.47-1.95s7.97,.65,11.47,1.95c3.5,1.3,6.52,3.16,9.07,5.59,2.55,2.42,4.54,5.36,5.96,8.81,1.42,3.45,2.14,7.3,2.14,11.54s-.71,8.1-2.14,11.54c-1.42,3.45-3.41,6.38-5.96,8.81-2.55,2.42-5.57,4.29-9.07,5.58-3.5,1.3-7.32,1.95-11.47,1.95s-7.97-.65-11.47-1.95c-3.5-1.3-6.52-3.16-9.07-5.58-2.55-2.42-4.54-5.36-5.96-8.81-1.42-3.45-2.14-7.3-2.14-11.54Zm12.14,0c0,2.5,.39,4.79,1.16,6.86,.77,2.07,1.89,3.87,3.34,5.4,1.45,1.53,3.19,2.71,5.21,3.56,2.02,.85,4.29,1.27,6.78,1.27s4.76-.42,6.79-1.27c2.02-.85,3.76-2.04,5.21-3.56,1.45-1.52,2.56-3.32,3.34-5.4,.77-2.07,1.16-4.36,1.16-6.86s-.39-4.72-1.16-6.82c-.78-2.1-1.89-3.91-3.34-5.44-1.45-1.52-3.19-2.71-5.21-3.56-2.02-.85-4.29-1.27-6.79-1.27s-4.76,.43-6.78,1.27c-2.02,.85-3.76,2.04-5.21,3.56-1.45,1.52-2.56,3.34-3.34,5.44-.78,2.1-1.16,4.37-1.16,6.82Z"/>
    <path class="cls-4" d="M227.08,102.96c0,3.15-.48,6.05-1.42,8.7-.95,2.65-2.36,4.95-4.24,6.9-1.87,1.95-4.21,3.47-7.01,4.57-2.8,1.1-6.02,1.65-9.67,1.65s-6.95-.55-9.75-1.65-5.13-2.62-7.01-4.57c-1.87-1.95-3.29-4.25-4.24-6.9-.95-2.65-1.42-5.55-1.42-8.7v-32.61h11.7v32.16c0,1.65,.26,3.17,.79,4.57,.52,1.4,1.26,2.61,2.21,3.64,.95,1.02,2.09,1.82,3.41,2.4,1.32,.57,2.76,.86,4.31,.86s2.97-.29,4.27-.86c1.3-.57,2.42-1.37,3.37-2.4,.95-1.02,1.69-2.24,2.21-3.64,.52-1.4,.79-2.92,.79-4.57v-32.16h11.69v32.61Z"/>
    <path class="cls-4" d="M245,91.49h-9.6l5.55-21.14h10.8l-6.75,21.14Z"/>
    <path class="cls-4" d="M260.07,70.35h20.54c2.7,0,5.26,.26,7.68,.79,2.42,.52,4.55,1.4,6.37,2.62,1.82,1.23,3.27,2.87,4.35,4.95,1.07,2.07,1.61,4.66,1.61,7.76,0,3.75-.97,6.93-2.92,9.56-1.95,2.62-4.8,4.29-8.55,4.98l13.49,22.42h-14.02l-11.1-21.22h-5.77v21.22h-11.7v-53.08Zm11.7,21.97h6.9c1.05,0,2.16-.04,3.34-.11,1.17-.07,2.24-.3,3.19-.67,.95-.38,1.74-.96,2.36-1.76,.62-.8,.94-1.92,.94-3.37,0-1.35-.28-2.42-.82-3.22-.55-.8-1.25-1.41-2.1-1.84-.85-.42-1.82-.71-2.92-.86s-2.17-.23-3.22-.23h-7.65v12.07Z"/>
    <path class="cls-4" d="M309.1,70.35h36.06v10.8h-24.36v9.9h23.01v10.79h-23.01v10.8h25.71v10.79h-37.41v-53.08Z"/>
    <path class="cls-4" d="M395.53,70.35h9.67l23.09,53.08h-13.19l-4.57-11.25h-20.62l-4.42,11.25h-12.89l22.94-53.08Zm4.5,15.44l-6.45,16.49h12.97l-6.52-16.49Z"/>
    <path class="cls-4" d="M434.06,70.35h11.69v42.28h21.67v10.79h-33.36v-53.08Z"/>
    <path class="cls-4" d="M474.32,70.35h11.69v42.28h21.67v10.79h-33.36v-53.08Z"/>
    <path class="cls-4" d="M536.31,70.35h20.54c2.7,0,5.26,.26,7.68,.79,2.42,.52,4.55,1.4,6.37,2.62,1.82,1.23,3.27,2.87,4.35,4.95,1.07,2.07,1.61,4.66,1.61,7.76,0,3.75-.97,6.93-2.92,9.56-1.95,2.62-4.8,4.29-8.55,4.98l13.49,22.42h-14.02l-11.1-21.22h-5.77v21.22h-11.7v-53.08Zm11.7,21.97h6.9c1.05,0,2.16-.04,3.34-.11,1.17-.07,2.24-.3,3.19-.67,.95-.38,1.74-.96,2.36-1.76,.62-.8,.94-1.92,.94-3.37,0-1.35-.28-2.42-.82-3.22-.55-.8-1.25-1.41-2.1-1.84-.85-.42-1.82-.71-2.92-.86s-2.17-.23-3.22-.23h-7.65v12.07Z"/>
    <path class="cls-4" d="M585.34,70.35h36.06v10.8h-24.36v9.9h23.01v10.79h-23.01v10.8h25.71v10.79h-37.41v-53.08Z"/>
    <path class="cls-4" d="M649.59,70.35h9.67l23.09,53.08h-13.19l-4.57-11.25h-20.62l-4.42,11.25h-12.89l22.94-53.08Zm4.5,15.44l-6.45,16.49h12.97l-6.52-16.49Z"/>
    <path class="cls-4" d="M687.67,70.35h17.54c4.25,0,8.28,.48,12.11,1.42,3.82,.95,7.16,2.49,10.01,4.61,2.85,2.12,5.11,4.89,6.78,8.28,1.67,3.4,2.51,7.52,2.51,12.37,0,4.3-.81,8.08-2.44,11.36-1.62,3.27-3.81,6.02-6.56,8.25-2.75,2.22-5.92,3.91-9.52,5.06-3.6,1.15-7.37,1.72-11.32,1.72h-19.12v-53.08Zm11.7,42.28h6.07c2.7,0,5.21-.27,7.53-.82,2.32-.55,4.34-1.46,6.04-2.74,1.7-1.27,3.04-2.95,4.01-5.02,.97-2.07,1.46-4.61,1.46-7.61,0-2.6-.49-4.86-1.46-6.78-.97-1.92-2.29-3.51-3.94-4.76-1.65-1.25-3.59-2.19-5.81-2.81-2.22-.62-4.56-.94-7.01-.94h-6.9v31.49Z"/>
    <path class="cls-4" d="M757.61,100.79l-19.94-30.44h14.54l11.25,19.87,11.92-19.87h13.87l-19.94,30.44v22.64h-11.7v-22.64Z"/>
    <path class="cls-4" d="M825.61,80.69h-15.14v-10.35h41.98v10.35h-15.14v42.73h-11.69v-42.73Z"/>
    <path class="cls-4" d="M855.52,96.89c0-4.25,.71-8.1,2.14-11.54,1.42-3.45,3.41-6.38,5.96-8.81,2.55-2.42,5.57-4.29,9.07-5.59,3.5-1.3,7.32-1.95,11.47-1.95s7.97,.65,11.47,1.95c3.5,1.3,6.52,3.16,9.07,5.59,2.55,2.42,4.54,5.36,5.96,8.81,1.42,3.45,2.14,7.3,2.14,11.54s-.71,8.1-2.14,11.54c-1.42,3.45-3.41,6.38-5.96,8.81-2.55,2.42-5.57,4.29-9.07,5.58-3.5,1.3-7.32,1.95-11.47,1.95s-7.97-.65-11.47-1.95c-3.5-1.3-6.52-3.16-9.07-5.58-2.55-2.42-4.54-5.36-5.96-8.81-1.42-3.45-2.14-7.3-2.14-11.54Zm12.14,0c0,2.5,.39,4.79,1.16,6.86,.77,2.07,1.89,3.87,3.34,5.4,1.45,1.53,3.19,2.71,5.21,3.56,2.02,.85,4.29,1.27,6.78,1.27s4.76-.42,6.79-1.27c2.02-.85,3.76-2.04,5.21-3.56,1.45-1.52,2.56-3.32,3.34-5.4,.77-2.07,1.16-4.36,1.16-6.86s-.39-4.72-1.16-6.82c-.78-2.1-1.89-3.91-3.34-5.44-1.45-1.52-3.19-2.71-5.21-3.56-2.02-.85-4.29-1.27-6.79-1.27s-4.76,.43-6.78,1.27c-2.02,.85-3.76,2.04-5.21,3.56-1.45,1.52-2.56,3.34-3.34,5.44-.78,2.1-1.16,4.37-1.16,6.82Z"/>
    <path class="cls-4" d="M942.92,70.35h20.54c2.7,0,5.26,.26,7.68,.79,2.42,.52,4.55,1.4,6.37,2.62,1.82,1.23,3.27,2.87,4.35,4.95,1.07,2.07,1.61,4.66,1.61,7.76,0,3.75-.97,6.93-2.92,9.56-1.95,2.62-4.8,4.29-8.55,4.98l13.49,22.42h-14.02l-11.1-21.22h-5.77v21.22h-11.7v-53.08Zm11.7,21.97h6.9c1.05,0,2.16-.04,3.34-.11,1.17-.07,2.24-.3,3.19-.67,.95-.38,1.74-.96,2.36-1.76,.62-.8,.94-1.92,.94-3.37,0-1.35-.28-2.42-.82-3.22-.55-.8-1.25-1.41-2.1-1.84-.85-.42-1.82-.71-2.92-.86s-2.17-.23-3.22-.23h-7.65v12.07Z"/>
    <path class="cls-4" d="M991.95,70.35h36.06v10.8h-24.36v9.9h23.01v10.79h-23.01v10.8h25.71v10.79h-37.41v-53.08Z"/>
    <path class="cls-4" d="M1039.18,70.35h35.61v10.8h-23.91v10.79h22.12v10.8h-22.12v20.69h-11.69v-53.08Z"/>
    <path class="cls-4" d="M1083.04,70.35h11.69v53.08h-11.69v-53.08Z"/>
    <path class="cls-4" d="M1105.82,70.35h11.69v42.28h21.67v10.79h-33.36v-53.08Z"/>
    <path class="cls-4" d="M1146.08,70.35h11.69v42.28h21.67v10.79h-33.36v-53.08Z"/>
    <path class="cls-4" d="M1190.23,116.98c0-.95,.17-1.85,.53-2.7,.35-.85,.84-1.59,1.46-2.21,.62-.62,1.36-1.11,2.21-1.46,.85-.35,1.75-.52,2.7-.52s1.85,.18,2.7,.52c.85,.35,1.59,.84,2.21,1.46,.62,.63,1.11,1.36,1.46,2.21,.35,.85,.52,1.75,.52,2.7s-.18,1.85-.52,2.7c-.35,.85-.84,1.59-1.46,2.21-.62,.63-1.36,1.11-2.21,1.46-.85,.35-1.75,.52-2.7,.52s-1.85-.18-2.7-.52c-.85-.35-1.59-.84-2.21-1.46-.63-.62-1.11-1.36-1.46-2.21-.35-.85-.53-1.75-.53-2.7Zm12.52-11.09h-11.24v-35.53h11.24v35.53Z"/>
  </g>
  <g>
    <path class="cls-1" d="M76.71,444.98h12.09c1.69,0,3.28,.15,4.78,.46,1.5,.31,2.81,.84,3.93,1.59,1.12,.75,2.01,1.76,2.67,3.04,.66,1.27,.99,2.87,.99,4.81s-.31,3.5-.92,4.78c-.61,1.29-1.46,2.31-2.53,3.08s-2.34,1.31-3.82,1.63c-1.47,.32-3.07,.48-4.78,.48h-5.24v12.69h-7.17v-32.56Zm7.17,13.8h4.78c.64,0,1.26-.06,1.86-.18,.6-.12,1.13-.33,1.61-.62,.47-.29,.86-.69,1.15-1.2,.29-.51,.44-1.14,.44-1.91,0-.83-.19-1.49-.58-2-.38-.51-.87-.9-1.47-1.17-.6-.28-1.26-.45-2-.53-.74-.08-1.44-.11-2.12-.11h-3.68v7.73Z"/>
    <path class="cls-1" d="M105.68,444.98h12.6c1.66,0,3.23,.16,4.71,.48,1.49,.32,2.79,.86,3.91,1.61,1.12,.75,2.01,1.76,2.67,3.04,.66,1.27,.99,2.86,.99,4.76,0,2.3-.6,4.25-1.79,5.86-1.2,1.61-2.94,2.63-5.24,3.06l8.28,13.75h-8.6l-6.81-13.01h-3.54v13.01h-7.17v-32.56Zm7.17,13.47h4.23c.64,0,1.33-.02,2.05-.07,.72-.05,1.37-.18,1.95-.41,.58-.23,1.07-.59,1.45-1.08,.38-.49,.57-1.18,.57-2.07,0-.83-.17-1.49-.51-1.98-.34-.49-.77-.87-1.29-1.13-.52-.26-1.12-.44-1.79-.53-.67-.09-1.33-.14-1.98-.14h-4.69v7.4Z"/>
    <path class="cls-1" d="M135.76,444.98h22.12v6.62h-14.95v6.07h14.12v6.62h-14.12v6.62h15.77v6.62h-22.95v-32.56Z"/>
    <path class="cls-1" d="M180.55,452.94c-.58-.74-1.37-1.28-2.37-1.63-1-.35-1.94-.53-2.83-.53-.52,0-1.06,.06-1.61,.18-.55,.12-1.07,.32-1.56,.58-.49,.26-.89,.61-1.2,1.04s-.46,.95-.46,1.56c0,.98,.37,1.73,1.1,2.25,.74,.52,1.66,.97,2.78,1.33,1.12,.37,2.32,.74,3.61,1.1,1.29,.37,2.49,.89,3.61,1.56,1.12,.67,2.05,1.58,2.78,2.71,.74,1.13,1.1,2.65,1.1,4.55s-.34,3.39-1.01,4.74c-.67,1.35-1.59,2.47-2.74,3.36-1.15,.89-2.48,1.55-4,1.98-1.52,.43-3.12,.64-4.81,.64-2.12,0-4.08-.32-5.89-.97-1.81-.64-3.5-1.69-5.06-3.13l5.11-5.61c.74,.98,1.66,1.74,2.78,2.28,1.12,.54,2.28,.81,3.47,.81,.58,0,1.17-.07,1.77-.21,.6-.14,1.13-.35,1.61-.62,.48-.28,.86-.63,1.15-1.06,.29-.43,.44-.93,.44-1.52,0-.98-.38-1.75-1.13-2.32-.75-.57-1.69-1.05-2.83-1.45-1.13-.4-2.36-.8-3.68-1.2-1.32-.4-2.54-.93-3.68-1.61-1.13-.67-2.08-1.56-2.83-2.67-.75-1.1-1.13-2.56-1.13-4.37s.34-3.28,1.03-4.6,1.61-2.42,2.76-3.31c1.15-.89,2.47-1.56,3.98-2,1.5-.44,3.05-.67,4.64-.67,1.84,0,3.62,.26,5.33,.78,1.72,.52,3.26,1.4,4.64,2.62l-4.92,5.38Z"/>
    <path class="cls-1" d="M206.95,452.94c-.58-.74-1.37-1.28-2.37-1.63-1-.35-1.94-.53-2.83-.53-.52,0-1.06,.06-1.61,.18-.55,.12-1.07,.32-1.56,.58-.49,.26-.89,.61-1.2,1.04s-.46,.95-.46,1.56c0,.98,.37,1.73,1.1,2.25,.74,.52,1.66,.97,2.78,1.33,1.12,.37,2.32,.74,3.61,1.1,1.29,.37,2.49,.89,3.61,1.56,1.12,.67,2.05,1.58,2.78,2.71,.74,1.13,1.1,2.65,1.1,4.55s-.34,3.39-1.01,4.74c-.67,1.35-1.59,2.47-2.74,3.36-1.15,.89-2.48,1.55-4,1.98-1.52,.43-3.12,.64-4.81,.64-2.12,0-4.08-.32-5.89-.97-1.81-.64-3.5-1.69-5.06-3.13l5.11-5.61c.74,.98,1.66,1.74,2.78,2.28,1.12,.54,2.28,.81,3.47,.81,.58,0,1.17-.07,1.77-.21,.6-.14,1.13-.35,1.61-.62,.48-.28,.86-.63,1.15-1.06,.29-.43,.44-.93,.44-1.52,0-.98-.38-1.75-1.13-2.32-.75-.57-1.69-1.05-2.83-1.45-1.13-.4-2.36-.8-3.68-1.2-1.32-.4-2.54-.93-3.68-1.61-1.13-.67-2.08-1.56-2.83-2.67-.75-1.1-1.13-2.56-1.13-4.37s.34-3.28,1.03-4.6,1.61-2.42,2.76-3.31c1.15-.89,2.47-1.56,3.98-2,1.5-.44,3.05-.67,4.64-.67,1.84,0,3.62,.26,5.33,.78,1.72,.52,3.26,1.4,4.64,2.62l-4.92,5.38Z"/>
    <path class="cls-1" d="M241.58,444.98h5.93l14.16,32.56h-8.09l-2.81-6.9h-12.65l-2.71,6.9h-7.91l14.07-32.56Zm2.76,9.47l-3.96,10.12h7.96l-4-10.12Z"/>
    <path class="cls-1" d="M264.94,444.98h9.75l13.84,22.63h.09v-22.63h7.17v32.56h-9.38l-14.21-23.18h-.09v23.18h-7.17v-32.56Z"/>
    <path class="cls-1" d="M302.42,444.98h10.76c2.61,0,5.08,.29,7.43,.87,2.35,.58,4.39,1.53,6.14,2.83,1.75,1.3,3.13,3,4.16,5.08,1.03,2.08,1.54,4.61,1.54,7.59,0,2.64-.5,4.96-1.49,6.97-1,2.01-2.34,3.7-4.02,5.06-1.69,1.37-3.63,2.4-5.84,3.1-2.21,.71-4.52,1.06-6.94,1.06h-11.73v-32.56Zm7.17,25.94h3.72c1.66,0,3.2-.17,4.62-.51,1.43-.34,2.66-.9,3.7-1.68,1.04-.78,1.86-1.81,2.46-3.08,.6-1.27,.9-2.83,.9-4.67,0-1.59-.3-2.98-.9-4.16-.6-1.18-1.4-2.15-2.41-2.92-1.01-.77-2.2-1.34-3.56-1.72-1.36-.38-2.8-.57-4.3-.57h-4.23v19.31Z"/>
    <path class="cls-1" d="M350.93,444.98h7.17v12.14h13.93v-12.14h7.17v32.56h-7.17v-14.07h-13.93v14.07h-7.17v-32.56Z"/>
    <path class="cls-1" d="M384.09,461.26c0-2.61,.44-4.97,1.31-7.08s2.09-3.92,3.66-5.4,3.42-2.63,5.56-3.43c2.15-.8,4.49-1.2,7.04-1.2s4.89,.4,7.04,1.2c2.15,.8,4,1.94,5.56,3.43s2.78,3.29,3.66,5.4c.87,2.12,1.31,4.48,1.31,7.08s-.44,4.97-1.31,7.08c-.87,2.12-2.09,3.92-3.66,5.4-1.56,1.49-3.42,2.63-5.56,3.43-2.15,.8-4.49,1.2-7.04,1.2s-4.89-.4-7.04-1.2c-2.15-.8-4-1.94-5.56-3.43-1.56-1.49-2.78-3.29-3.66-5.4s-1.31-4.48-1.31-7.08Zm7.45,0c0,1.53,.24,2.94,.71,4.21,.47,1.27,1.16,2.38,2.05,3.31,.89,.94,1.95,1.66,3.2,2.18,1.24,.52,2.63,.78,4.16,.78s2.92-.26,4.16-.78c1.24-.52,2.31-1.25,3.2-2.18,.89-.93,1.57-2.04,2.05-3.31,.47-1.27,.71-2.67,.71-4.21s-.24-2.9-.71-4.19c-.48-1.29-1.16-2.4-2.05-3.33-.89-.93-1.95-1.66-3.2-2.18-1.24-.52-2.63-.78-4.16-.78s-2.92,.26-4.16,.78c-1.24,.52-2.31,1.25-3.2,2.18-.89,.94-1.57,2.05-2.05,3.33-.48,1.29-.71,2.68-.71,4.19Z"/>
    <path class="cls-1" d="M424.37,444.98h7.17v25.94h13.29v6.62h-20.46v-32.56Z"/>
    <path class="cls-1" d="M448.79,444.98h10.76c2.61,0,5.08,.29,7.43,.87,2.35,.58,4.39,1.53,6.14,2.83,1.75,1.3,3.13,3,4.16,5.08,1.03,2.08,1.54,4.61,1.54,7.59,0,2.64-.5,4.96-1.49,6.97-1,2.01-2.34,3.7-4.02,5.06-1.69,1.37-3.63,2.4-5.84,3.1-2.21,.71-4.52,1.06-6.94,1.06h-11.73v-32.56Zm7.17,25.94h3.72c1.66,0,3.2-.17,4.62-.51,1.43-.34,2.66-.9,3.7-1.68,1.04-.78,1.86-1.81,2.46-3.08,.6-1.27,.9-2.83,.9-4.67,0-1.59-.3-2.98-.9-4.16-.6-1.18-1.4-2.15-2.41-2.92-1.01-.77-2.2-1.34-3.56-1.72-1.36-.38-2.8-.57-4.3-.57h-4.23v19.31Z"/>
    <path class="cls-1" d="M510.92,444.98h12.09c1.69,0,3.28,.15,4.78,.46,1.5,.31,2.81,.84,3.93,1.59,1.12,.75,2.01,1.76,2.67,3.04,.66,1.27,.99,2.87,.99,4.81s-.31,3.5-.92,4.78c-.61,1.29-1.46,2.31-2.53,3.08s-2.35,1.31-3.82,1.63c-1.47,.32-3.07,.48-4.78,.48h-5.24v12.69h-7.17v-32.56Zm7.17,13.8h4.78c.64,0,1.26-.06,1.86-.18,.6-.12,1.13-.33,1.61-.62s.86-.69,1.15-1.2c.29-.51,.44-1.14,.44-1.91,0-.83-.19-1.49-.58-2s-.87-.9-1.47-1.17c-.6-.28-1.26-.45-2-.53-.74-.08-1.44-.11-2.12-.11h-3.68v7.73Z"/>
    <path class="cls-1" d="M539.89,444.98h12.6c1.66,0,3.23,.16,4.71,.48,1.49,.32,2.79,.86,3.91,1.61,1.12,.75,2.01,1.76,2.67,3.04,.66,1.27,.99,2.86,.99,4.76,0,2.3-.6,4.25-1.79,5.86s-2.94,2.63-5.24,3.06l8.28,13.75h-8.6l-6.81-13.01h-3.54v13.01h-7.17v-32.56Zm7.17,13.47h4.23c.64,0,1.33-.02,2.05-.07,.72-.05,1.37-.18,1.96-.41,.58-.23,1.06-.59,1.45-1.08,.38-.49,.58-1.18,.58-2.07,0-.83-.17-1.49-.51-1.98-.34-.49-.77-.87-1.29-1.13-.52-.26-1.12-.44-1.79-.53-.67-.09-1.33-.14-1.98-.14h-4.69v7.4Z"/>
    <path class="cls-1" d="M567.94,461.26c0-2.61,.44-4.97,1.31-7.08,.87-2.12,2.09-3.92,3.66-5.4s3.42-2.63,5.56-3.43c2.15-.8,4.49-1.2,7.04-1.2s4.89,.4,7.04,1.2c2.15,.8,4,1.94,5.56,3.43s2.78,3.29,3.66,5.4,1.31,4.48,1.31,7.08-.44,4.97-1.31,7.08-2.09,3.92-3.66,5.4c-1.56,1.49-3.42,2.63-5.56,3.43-2.15,.8-4.49,1.2-7.04,1.2s-4.89-.4-7.04-1.2c-2.15-.8-4-1.94-5.56-3.43-1.56-1.49-2.78-3.29-3.66-5.4-.87-2.12-1.31-4.48-1.31-7.08Zm7.45,0c0,1.53,.24,2.94,.71,4.21,.47,1.27,1.16,2.38,2.05,3.31,.89,.94,1.95,1.66,3.2,2.18,1.24,.52,2.63,.78,4.16,.78s2.92-.26,4.16-.78c1.24-.52,2.31-1.25,3.2-2.18,.89-.93,1.57-2.04,2.05-3.31s.71-2.67,.71-4.21-.24-2.9-.71-4.19c-.48-1.29-1.16-2.4-2.05-3.33-.89-.93-1.96-1.66-3.2-2.18-1.24-.52-2.63-.78-4.16-.78s-2.92,.26-4.16,.78c-1.24,.52-2.31,1.25-3.2,2.18-.89,.94-1.57,2.05-2.05,3.33-.48,1.29-.71,2.68-.71,4.19Z"/>
    <path class="cls-1" d="M607.95,444.98h10.76c2.61,0,5.08,.29,7.43,.87,2.35,.58,4.39,1.53,6.14,2.83,1.75,1.3,3.13,3,4.16,5.08,1.03,2.08,1.54,4.61,1.54,7.59,0,2.64-.5,4.96-1.49,6.97-1,2.01-2.34,3.7-4.02,5.06-1.69,1.37-3.63,2.4-5.84,3.1-2.21,.71-4.52,1.06-6.94,1.06h-11.73v-32.56Zm7.17,25.94h3.72c1.66,0,3.2-.17,4.62-.51,1.43-.34,2.66-.9,3.7-1.68,1.04-.78,1.86-1.81,2.46-3.08,.6-1.27,.9-2.83,.9-4.67,0-1.59-.3-2.98-.9-4.16-.6-1.18-1.4-2.15-2.41-2.92-1.01-.77-2.2-1.34-3.56-1.72-1.36-.38-2.8-.57-4.3-.57h-4.23v19.31Z"/>
    <path class="cls-1" d="M670.31,464.98c0,1.93-.29,3.71-.87,5.33s-1.45,3.04-2.6,4.23-2.58,2.13-4.3,2.81c-1.72,.67-3.7,1.01-5.93,1.01s-4.26-.34-5.98-1.01c-1.72-.67-3.15-1.61-4.3-2.81s-2.02-2.61-2.6-4.23c-.58-1.62-.87-3.4-.87-5.33v-20h7.17v19.73c0,1.01,.16,1.95,.48,2.8,.32,.86,.77,1.6,1.36,2.23,.58,.63,1.28,1.12,2.09,1.47s1.69,.53,2.64,.53,1.82-.18,2.62-.53,1.49-.84,2.07-1.47c.58-.63,1.04-1.37,1.36-2.23,.32-.86,.48-1.79,.48-2.8v-19.73h7.17v20Z"/>
    <path class="cls-1" d="M698.22,453.44c-.71-.86-1.57-1.52-2.6-1.98s-2.21-.69-3.56-.69-2.6,.26-3.75,.78-2.15,1.25-2.99,2.18c-.84,.94-1.5,2.05-1.98,3.33-.48,1.29-.71,2.68-.71,4.19s.24,2.94,.71,4.21c.47,1.27,1.13,2.38,1.95,3.31,.83,.94,1.8,1.66,2.92,2.18,1.12,.52,2.32,.78,3.61,.78,1.47,0,2.77-.31,3.91-.92,1.13-.61,2.07-1.47,2.81-2.58l5.98,4.46c-1.38,1.93-3.13,3.36-5.24,4.28s-4.29,1.38-6.53,1.38c-2.54,0-4.89-.4-7.04-1.2-2.15-.8-4-1.94-5.56-3.43-1.56-1.49-2.78-3.29-3.66-5.4-.87-2.12-1.31-4.48-1.31-7.08s.44-4.97,1.31-7.08c.87-2.12,2.09-3.92,3.66-5.4s3.42-2.63,5.56-3.43c2.15-.8,4.49-1.2,7.04-1.2,.92,0,1.88,.08,2.87,.25,1,.17,1.98,.44,2.94,.8s1.89,.86,2.78,1.47c.89,.61,1.69,1.36,2.39,2.25l-5.52,4.51Z"/>
    <path class="cls-1" d="M714.73,451.33h-9.29v-6.35h25.75v6.35h-9.29v26.21h-7.17v-26.21Z"/>
    <path class="cls-1" d="M748.44,444.98h12.14c1.41,0,2.83,.1,4.25,.3s2.71,.6,3.84,1.2c1.13,.6,2.05,1.43,2.76,2.51,.71,1.07,1.06,2.5,1.06,4.28s-.51,3.37-1.54,4.58c-1.03,1.21-2.38,2.08-4.07,2.6v.09c1.07,.15,2.05,.45,2.92,.9,.87,.44,1.62,1.01,2.25,1.7,.63,.69,1.11,1.49,1.45,2.41,.34,.92,.51,1.9,.51,2.94,0,1.72-.37,3.15-1.1,4.3-.74,1.15-1.69,2.08-2.85,2.78-1.17,.71-2.48,1.21-3.93,1.52-1.46,.31-2.9,.46-4.35,.46h-13.34v-32.56Zm7.17,13.01h5.2c.55,0,1.1-.06,1.63-.18,.54-.12,1.02-.32,1.45-.6,.43-.28,.77-.64,1.04-1.1,.26-.46,.39-1.01,.39-1.66s-.15-1.23-.44-1.68c-.29-.44-.67-.79-1.13-1.03-.46-.25-.98-.42-1.56-.53-.58-.11-1.15-.16-1.7-.16h-4.88v6.94Zm0,13.47h6.44c.55,0,1.11-.06,1.68-.18,.57-.12,1.08-.34,1.54-.64,.46-.31,.83-.7,1.13-1.2,.29-.49,.44-1.09,.44-1.79,0-.77-.19-1.39-.57-1.86-.38-.47-.87-.83-1.45-1.08s-1.21-.41-1.88-.51c-.67-.09-1.3-.14-1.89-.14h-5.43v7.4Z"/>
    <path class="cls-1" d="M805.69,464.98c0,1.93-.29,3.71-.87,5.33-.58,1.62-1.45,3.04-2.6,4.23-1.15,1.2-2.58,2.13-4.3,2.81-1.72,.67-3.69,1.01-5.93,1.01s-4.26-.34-5.98-1.01c-1.72-.67-3.15-1.61-4.3-2.81-1.15-1.2-2.02-2.61-2.6-4.23-.58-1.62-.87-3.4-.87-5.33v-20h7.17v19.73c0,1.01,.16,1.95,.48,2.8,.32,.86,.77,1.6,1.36,2.23,.58,.63,1.28,1.12,2.09,1.47,.81,.35,1.69,.53,2.64,.53s1.82-.18,2.62-.53c.8-.35,1.49-.84,2.07-1.47,.58-.63,1.03-1.37,1.36-2.23,.32-.86,.48-1.79,.48-2.8v-19.73h7.17v20Z"/>
    <path class="cls-1" d="M818.62,451.33h-9.29v-6.35h25.75v6.35h-9.29v26.21h-7.17v-26.21Z"/>
    <path class="cls-1" d="M845.01,451.33h-9.29v-6.35h25.75v6.35h-9.29v26.21h-7.17v-26.21Z"/>
    <path class="cls-1" d="M863.36,461.26c0-2.61,.44-4.97,1.31-7.08s2.09-3.92,3.66-5.4,3.42-2.63,5.56-3.43c2.15-.8,4.49-1.2,7.04-1.2s4.89,.4,7.04,1.2c2.15,.8,4,1.94,5.56,3.43s2.78,3.29,3.66,5.4c.87,2.12,1.31,4.48,1.31,7.08s-.44,4.97-1.31,7.08c-.87,2.12-2.09,3.92-3.66,5.4-1.56,1.49-3.42,2.63-5.56,3.43-2.15,.8-4.49,1.2-7.04,1.2s-4.89-.4-7.04-1.2c-2.15-.8-4-1.94-5.56-3.43-1.56-1.49-2.78-3.29-3.66-5.4s-1.31-4.48-1.31-7.08Zm7.45,0c0,1.53,.24,2.94,.71,4.21,.47,1.27,1.16,2.38,2.05,3.31,.89,.94,1.95,1.66,3.2,2.18,1.24,.52,2.63,.78,4.16,.78s2.92-.26,4.16-.78c1.24-.52,2.31-1.25,3.2-2.18,.89-.93,1.57-2.04,2.05-3.31,.47-1.27,.71-2.67,.71-4.21s-.24-2.9-.71-4.19c-.48-1.29-1.16-2.4-2.05-3.33-.89-.93-1.95-1.66-3.2-2.18-1.24-.52-2.63-.78-4.16-.78s-2.92,.26-4.16,.78c-1.24,.52-2.31,1.25-3.2,2.18-.89,.94-1.57,2.05-2.05,3.33-.48,1.29-.71,2.68-.71,4.19Z"/>
    <path class="cls-1" d="M903.37,444.98h9.75l13.84,22.63h.09v-22.63h7.17v32.56h-9.38l-14.21-23.18h-.09v23.18h-7.17v-32.56Z"/>
    <path class="cls-1" d="M956.94,452.94c-.58-.74-1.37-1.28-2.37-1.63-1-.35-1.94-.53-2.83-.53-.52,0-1.06,.06-1.61,.18-.55,.12-1.07,.32-1.56,.58-.49,.26-.89,.61-1.2,1.04s-.46,.95-.46,1.56c0,.98,.37,1.73,1.1,2.25,.74,.52,1.66,.97,2.78,1.33,1.12,.37,2.32,.74,3.61,1.1,1.29,.37,2.49,.89,3.61,1.56,1.12,.67,2.05,1.58,2.78,2.71,.74,1.13,1.1,2.65,1.1,4.55s-.34,3.39-1.01,4.74c-.67,1.35-1.59,2.47-2.74,3.36-1.15,.89-2.48,1.55-4,1.98-1.52,.43-3.12,.64-4.81,.64-2.12,0-4.08-.32-5.89-.97-1.81-.64-3.5-1.69-5.06-3.13l5.11-5.61c.74,.98,1.66,1.74,2.78,2.28,1.12,.54,2.28,.81,3.47,.81,.58,0,1.17-.07,1.77-.21,.6-.14,1.13-.35,1.61-.62,.48-.28,.86-.63,1.15-1.06,.29-.43,.44-.93,.44-1.52,0-.98-.38-1.75-1.13-2.32-.75-.57-1.69-1.05-2.83-1.45-1.13-.4-2.36-.8-3.68-1.2-1.32-.4-2.54-.93-3.68-1.61-1.13-.67-2.08-1.56-2.83-2.67-.75-1.1-1.13-2.56-1.13-4.37s.34-3.28,1.03-4.6,1.61-2.42,2.76-3.31c1.15-.89,2.47-1.56,3.98-2,1.5-.44,3.05-.67,4.64-.67,1.84,0,3.62,.26,5.33,.78,1.72,.52,3.26,1.4,4.64,2.62l-4.92,5.38Z"/>
    <path class="cls-1" d="M987.16,451.33h-9.29v-6.35h25.75v6.35h-9.29v26.21h-7.17v-26.21Z"/>
    <path class="cls-1" d="M1005.51,461.26c0-2.61,.44-4.97,1.31-7.08s2.09-3.92,3.66-5.4,3.42-2.63,5.56-3.43c2.15-.8,4.49-1.2,7.04-1.2s4.89,.4,7.04,1.2c2.15,.8,4,1.94,5.56,3.43s2.78,3.29,3.66,5.4c.87,2.12,1.31,4.48,1.31,7.08s-.44,4.97-1.31,7.08c-.87,2.12-2.09,3.92-3.66,5.4-1.56,1.49-3.42,2.63-5.56,3.43-2.15,.8-4.49,1.2-7.04,1.2s-4.89-.4-7.04-1.2c-2.15-.8-4-1.94-5.56-3.43-1.56-1.49-2.78-3.29-3.66-5.4s-1.31-4.48-1.31-7.08Zm7.45,0c0,1.53,.24,2.94,.71,4.21,.47,1.27,1.16,2.38,2.05,3.31,.89,.94,1.95,1.66,3.2,2.18,1.24,.52,2.63,.78,4.16,.78s2.92-.26,4.16-.78c1.24-.52,2.31-1.25,3.2-2.18,.89-.93,1.57-2.04,2.05-3.31,.47-1.27,.71-2.67,.71-4.21s-.24-2.9-.71-4.19c-.48-1.29-1.16-2.4-2.05-3.33-.89-.93-1.95-1.66-3.2-2.18-1.24-.52-2.63-.78-4.16-.78s-2.92,.26-4.16,.78c-1.24,.52-2.31,1.25-3.2,2.18-.89,.94-1.57,2.05-2.05,3.33-.48,1.29-.71,2.68-.71,4.19Z"/>
    <path class="cls-1" d="M1059.13,444.98h12.6c1.66,0,3.23,.16,4.71,.48,1.49,.32,2.79,.86,3.91,1.61,1.12,.75,2.01,1.76,2.67,3.04,.66,1.27,.99,2.86,.99,4.76,0,2.3-.6,4.25-1.79,5.86-1.2,1.61-2.94,2.63-5.24,3.06l8.28,13.75h-8.6l-6.81-13.01h-3.54v13.01h-7.17v-32.56Zm7.17,13.47h4.23c.64,0,1.33-.02,2.05-.07,.72-.05,1.37-.18,1.95-.41,.58-.23,1.07-.59,1.45-1.08,.38-.49,.57-1.18,.57-2.07,0-.83-.17-1.49-.51-1.98-.34-.49-.77-.87-1.29-1.13-.52-.26-1.12-.44-1.79-.53-.67-.09-1.33-.14-1.98-.14h-4.69v7.4Z"/>
    <path class="cls-1" d="M1089.2,444.98h22.12v6.62h-14.95v6.07h14.12v6.62h-14.12v6.62h15.77v6.62h-22.95v-32.56Z"/>
    <path class="cls-1" d="M1118.17,444.98h21.84v6.62h-14.67v6.62h13.57v6.62h-13.57v12.69h-7.17v-32.56Z"/>
    <path class="cls-1" d="M1145.08,444.98h7.17v32.56h-7.17v-32.56Z"/>
    <path class="cls-1" d="M1159.05,444.98h7.17v25.94h13.29v6.62h-20.46v-32.56Z"/>
    <path class="cls-1" d="M1183.75,444.98h7.17v25.94h13.29v6.62h-20.46v-32.56Z"/>
    <path class="cls-1" d="M73.4,482.14v-2.3H480.38v2.3H73.4Z"/>
  </g>
  <g>
    <path class="cls-5" d="M72.9,365.92h17.5c2.44,0,4.75,.22,6.92,.67,2.17,.44,4.07,1.21,5.69,2.3,1.62,1.09,2.91,2.55,3.86,4.39,.95,1.84,1.43,4.16,1.43,6.95s-.44,5.06-1.33,6.92c-.89,1.86-2.11,3.35-3.66,4.46-1.55,1.11-3.39,1.9-5.52,2.36s-4.44,.7-6.92,.7h-7.59v18.37h-10.38v-47.11Zm10.38,19.96h6.92c.93,0,1.83-.09,2.69-.27,.87-.18,1.64-.48,2.33-.9,.69-.42,1.24-1,1.66-1.73,.42-.73,.63-1.65,.63-2.76,0-1.2-.28-2.16-.83-2.9-.56-.73-1.26-1.3-2.13-1.7s-1.83-.65-2.89-.77c-1.06-.11-2.09-.17-3.06-.17h-5.32v11.18Z"/>
    <path class="cls-5" d="M154.56,394.87c0,2.79-.42,5.37-1.26,7.72-.84,2.35-2.1,4.39-3.76,6.12-1.66,1.73-3.74,3.08-6.22,4.06-2.48,.98-5.35,1.46-8.58,1.46s-6.17-.49-8.65-1.46c-2.49-.97-4.56-2.33-6.22-4.06-1.66-1.73-2.92-3.77-3.76-6.12-.84-2.35-1.26-4.92-1.26-7.72v-28.95h10.38v28.55c0,1.46,.23,2.82,.7,4.06,.47,1.24,1.12,2.32,1.96,3.23,.84,.91,1.85,1.62,3.03,2.13,1.18,.51,2.45,.77,3.83,.77s2.64-.25,3.79-.77c1.15-.51,2.15-1.22,2.99-2.13,.84-.91,1.5-1.99,1.96-3.23,.47-1.24,.7-2.6,.7-4.06v-28.55h10.38v28.95Z"/>
    <path class="cls-5" d="M173.25,375.1h-13.44v-9.18h37.27v9.18h-13.44v37.93h-10.38v-37.93Z"/>
    <path class="cls-5" d="M231.15,375.1h-13.44v-9.18h37.27v9.18h-13.44v37.93h-10.38v-37.93Z"/>
    <path class="cls-5" d="M260.23,365.92h10.38v17.57h20.16v-17.57h10.38v47.11h-10.38v-20.36h-20.16v20.36h-10.38v-47.11Z"/>
    <path class="cls-5" d="M311.13,365.92h32.01v9.58h-21.63v8.78h20.43v9.58h-20.43v9.58h22.82v9.58h-33.21v-47.11Z"/>
    <path class="cls-5" d="M381.47,375.1h-13.44v-9.18h37.27v9.18h-13.44v37.93h-10.38v-37.93Z"/>
    <path class="cls-5" d="M450.28,394.87c0,2.79-.42,5.37-1.26,7.72-.84,2.35-2.1,4.39-3.76,6.12-1.66,1.73-3.74,3.08-6.22,4.06-2.48,.98-5.35,1.46-8.58,1.46s-6.17-.49-8.65-1.46c-2.49-.97-4.56-2.33-6.22-4.06-1.66-1.73-2.92-3.77-3.76-6.12-.84-2.35-1.26-4.92-1.26-7.72v-28.95h10.38v28.55c0,1.46,.23,2.82,.7,4.06,.47,1.24,1.12,2.32,1.96,3.23,.84,.91,1.85,1.62,3.03,2.13,1.18,.51,2.45,.77,3.83,.77s2.64-.25,3.79-.77c1.15-.51,2.15-1.22,2.99-2.13,.84-.91,1.5-1.99,1.96-3.23,.47-1.24,.7-2.6,.7-4.06v-28.55h10.38v28.95Z"/>
    <path class="cls-5" d="M459.86,365.92h17.57c2.04,0,4.09,.14,6.16,.43,2.06,.29,3.91,.87,5.56,1.73,1.64,.86,2.97,2.07,3.99,3.63,1.02,1.55,1.53,3.62,1.53,6.19s-.74,4.87-2.23,6.62c-1.49,1.75-3.45,3.01-5.89,3.76v.13c1.55,.22,2.96,.66,4.23,1.3,1.26,.64,2.35,1.46,3.26,2.46,.91,1,1.61,2.16,2.1,3.49,.49,1.33,.73,2.75,.73,4.26,0,2.49-.53,4.56-1.6,6.22-1.06,1.66-2.44,3.01-4.13,4.03-1.69,1.02-3.58,1.75-5.69,2.2-2.11,.44-4.2,.67-6.29,.67h-19.3v-47.11Zm10.38,18.83h7.52c.8,0,1.59-.09,2.36-.27,.78-.18,1.47-.47,2.1-.87,.62-.4,1.12-.93,1.5-1.6,.38-.67,.57-1.46,.57-2.4s-.21-1.79-.63-2.43c-.42-.64-.96-1.14-1.63-1.5-.67-.35-1.42-.61-2.26-.77-.84-.15-1.66-.23-2.46-.23h-7.05v10.05Zm0,19.5h9.32c.8,0,1.61-.09,2.43-.27,.82-.18,1.56-.49,2.23-.93s1.21-1.02,1.63-1.73c.42-.71,.63-1.57,.63-2.6,0-1.11-.28-2.01-.83-2.69-.56-.69-1.25-1.21-2.1-1.56-.84-.35-1.75-.6-2.73-.73-.98-.13-1.89-.2-2.73-.2h-7.85v10.71Z"/>
    <path class="cls-5" d="M503.38,365.92h32.01v9.58h-21.63v8.78h20.43v9.58h-20.43v9.58h22.82v9.58h-33.21v-47.11Z"/>
    <path class="cls-5" d="M564.47,365.92h10.38v47.11h-10.38v-47.11Z"/>
    <path class="cls-5" d="M584.3,365.92h14.11l20.03,32.74h.13v-32.74h10.38v47.11h-13.58l-20.56-33.54h-.13v33.54h-10.38v-47.11Z"/>
    <path class="cls-5" d="M647.65,375.1h-13.44v-9.18h37.27v9.18h-13.44v37.93h-10.38v-37.93Z"/>
    <path class="cls-5" d="M674.2,389.48c0-3.77,.63-7.19,1.9-10.25s3.03-5.67,5.29-7.82c2.26-2.15,4.95-3.8,8.05-4.96,3.1-1.15,6.5-1.73,10.18-1.73s7.08,.58,10.18,1.73c3.1,1.15,5.79,2.81,8.05,4.96,2.26,2.15,4.03,4.76,5.29,7.82,1.26,3.06,1.9,6.48,1.9,10.25s-.63,7.19-1.9,10.25c-1.26,3.06-3.03,5.67-5.29,7.82-2.26,2.15-4.95,3.8-8.05,4.96-3.11,1.15-6.5,1.73-10.18,1.73s-7.08-.58-10.18-1.73c-3.11-1.15-5.79-2.81-8.05-4.96-2.26-2.15-4.03-4.76-5.29-7.82-1.26-3.06-1.9-6.48-1.9-10.25Zm10.78,0c0,2.22,.34,4.25,1.03,6.09s1.67,3.44,2.96,4.79c1.29,1.35,2.83,2.41,4.62,3.16,1.8,.75,3.8,1.13,6.02,1.13s4.23-.38,6.02-1.13c1.8-.75,3.34-1.81,4.62-3.16,1.29-1.35,2.27-2.95,2.96-4.79s1.03-3.87,1.03-6.09-.34-4.19-1.03-6.06c-.69-1.86-1.67-3.47-2.96-4.82-1.29-1.35-2.83-2.41-4.62-3.16-1.8-.75-3.8-1.13-6.02-1.13s-4.23,.38-6.02,1.13c-1.8,.75-3.34,1.81-4.62,3.16-1.29,1.35-2.27,2.96-2.96,4.82-.69,1.86-1.03,3.88-1.03,6.06Z"/>
    <path class="cls-5" d="M763.37,392.94l-17.7-27.02h12.91l9.98,17.63,10.58-17.63h12.31l-17.7,27.02v20.1h-10.38v-20.1Z"/>
    <path class="cls-5" d="M792.38,389.48c0-3.77,.63-7.19,1.9-10.25,1.26-3.06,3.03-5.67,5.29-7.82,2.26-2.15,4.95-3.8,8.05-4.96,3.11-1.15,6.5-1.73,10.18-1.73s7.08,.58,10.18,1.73c3.11,1.15,5.79,2.81,8.05,4.96,2.26,2.15,4.03,4.76,5.29,7.82,1.26,3.06,1.9,6.48,1.9,10.25s-.63,7.19-1.9,10.25c-1.26,3.06-3.03,5.67-5.29,7.82-2.26,2.15-4.95,3.8-8.05,4.96s-6.5,1.73-10.18,1.73-7.08-.58-10.18-1.73-5.79-2.81-8.05-4.96c-2.26-2.15-4.03-4.76-5.29-7.82-1.26-3.06-1.9-6.48-1.9-10.25Zm10.78,0c0,2.22,.34,4.25,1.03,6.09,.69,1.84,1.67,3.44,2.96,4.79,1.29,1.35,2.83,2.41,4.62,3.16,1.8,.75,3.8,1.13,6.02,1.13s4.23-.38,6.02-1.13c1.8-.75,3.34-1.81,4.62-3.16,1.29-1.35,2.27-2.95,2.96-4.79,.69-1.84,1.03-3.87,1.03-6.09s-.34-4.19-1.03-6.06c-.69-1.86-1.68-3.47-2.96-4.82-1.29-1.35-2.83-2.41-4.62-3.16-1.8-.75-3.8-1.13-6.02-1.13s-4.23,.38-6.02,1.13c-1.8,.75-3.34,1.81-4.62,3.16-1.29,1.35-2.27,2.96-2.96,4.82-.69,1.86-1.03,3.88-1.03,6.06Z"/>
    <path class="cls-5" d="M890,394.87c0,2.79-.42,5.37-1.26,7.72s-2.1,4.39-3.76,6.12c-1.66,1.73-3.74,3.08-6.22,4.06-2.49,.98-5.35,1.46-8.58,1.46s-6.17-.49-8.65-1.46c-2.48-.97-4.56-2.33-6.22-4.06-1.66-1.73-2.92-3.77-3.76-6.12s-1.26-4.92-1.26-7.72v-28.95h10.38v28.55c0,1.46,.23,2.82,.7,4.06,.47,1.24,1.12,2.32,1.96,3.23,.84,.91,1.85,1.62,3.03,2.13,1.18,.51,2.45,.77,3.83,.77s2.64-.25,3.79-.77c1.15-.51,2.15-1.22,3-2.13,.84-.91,1.5-1.99,1.96-3.23,.46-1.24,.7-2.6,.7-4.06v-28.55h10.38v28.95Z"/>
    <path class="cls-5" d="M899.58,365.92h18.23c2.4,0,4.67,.23,6.82,.7,2.15,.47,4.04,1.24,5.66,2.33,1.62,1.09,2.9,2.55,3.86,4.39,.95,1.84,1.43,4.14,1.43,6.89,0,3.33-.86,6.16-2.59,8.48-1.73,2.33-4.26,3.8-7.59,4.42l11.98,19.9h-12.44l-9.85-18.83h-5.12v18.83h-10.38v-47.11Zm10.38,19.5h6.12c.93,0,1.92-.03,2.96-.1,1.04-.07,1.98-.27,2.83-.6,.84-.33,1.54-.85,2.1-1.56,.55-.71,.83-1.71,.83-2.99,0-1.2-.24-2.15-.73-2.86-.49-.71-1.11-1.25-1.86-1.63-.75-.38-1.62-.63-2.6-.77-.98-.13-1.93-.2-2.86-.2h-6.79v10.71Z"/>
    <path class="cls-5" d="M962.4,365.92h17.57c2.04,0,4.09,.14,6.16,.43,2.06,.29,3.91,.87,5.56,1.73,1.64,.86,2.97,2.07,3.99,3.63,1.02,1.55,1.53,3.62,1.53,6.19s-.74,4.87-2.23,6.62c-1.49,1.75-3.45,3.01-5.89,3.76v.13c1.55,.22,2.96,.66,4.23,1.3,1.26,.64,2.35,1.46,3.26,2.46,.91,1,1.61,2.16,2.1,3.49,.49,1.33,.73,2.75,.73,4.26,0,2.49-.53,4.56-1.6,6.22-1.07,1.66-2.44,3.01-4.13,4.03-1.69,1.02-3.58,1.75-5.69,2.2-2.11,.44-4.2,.67-6.29,.67h-19.3v-47.11Zm10.38,18.83h7.52c.8,0,1.58-.09,2.36-.27,.78-.18,1.47-.47,2.1-.87,.62-.4,1.12-.93,1.5-1.6s.57-1.46,.57-2.4-.21-1.79-.63-2.43c-.42-.64-.96-1.14-1.63-1.5-.67-.35-1.42-.61-2.26-.77-.84-.15-1.66-.23-2.46-.23h-7.05v10.05Zm0,19.5h9.32c.8,0,1.61-.09,2.43-.27,.82-.18,1.56-.49,2.23-.93,.67-.44,1.21-1.02,1.63-1.73,.42-.71,.63-1.57,.63-2.6,0-1.11-.28-2.01-.83-2.69s-1.25-1.21-2.1-1.56c-.84-.35-1.75-.6-2.73-.73-.98-.13-1.89-.2-2.73-.2h-7.85v10.71Z"/>
    <path class="cls-5" d="M1002.99,389.48c0-3.77,.63-7.19,1.9-10.25,1.26-3.06,3.03-5.67,5.29-7.82,2.26-2.15,4.95-3.8,8.05-4.96,3.1-1.15,6.5-1.73,10.18-1.73s7.08,.58,10.18,1.73c3.1,1.15,5.79,2.81,8.05,4.96,2.26,2.15,4.03,4.76,5.29,7.82s1.9,6.48,1.9,10.25-.63,7.19-1.9,10.25c-1.26,3.06-3.03,5.67-5.29,7.82-2.26,2.15-4.95,3.8-8.05,4.96-3.11,1.15-6.5,1.73-10.18,1.73s-7.08-.58-10.18-1.73c-3.11-1.15-5.79-2.81-8.05-4.96-2.26-2.15-4.03-4.76-5.29-7.82-1.27-3.06-1.9-6.48-1.9-10.25Zm10.78,0c0,2.22,.34,4.25,1.03,6.09s1.67,3.44,2.96,4.79c1.29,1.35,2.83,2.41,4.62,3.16,1.8,.75,3.8,1.13,6.02,1.13s4.22-.38,6.02-1.13c1.8-.75,3.34-1.81,4.62-3.16,1.29-1.35,2.27-2.95,2.96-4.79,.69-1.84,1.03-3.87,1.03-6.09s-.34-4.19-1.03-6.06c-.69-1.86-1.67-3.47-2.96-4.82-1.29-1.35-2.83-2.41-4.62-3.16-1.8-.75-3.8-1.13-6.02-1.13s-4.23,.38-6.02,1.13c-1.8,.75-3.34,1.81-4.62,3.16-1.29,1.35-2.27,2.96-2.96,4.82-.69,1.86-1.03,3.88-1.03,6.06Z"/>
    <path class="cls-5" d="M1070,375.1h-13.44v-9.18h37.26v9.18h-13.44v37.93h-10.38v-37.93Z"/>
    <path class="cls-5" d="M1108.2,375.1h-13.44v-9.18h37.27v9.18h-13.44v37.93h-10.38v-37.93Z"/>
    <path class="cls-5" d="M1137.68,365.92h10.38v37.53h19.23v9.58h-29.61v-47.11Z"/>
    <path class="cls-5" d="M1173.41,365.92h32.01v9.58h-21.63v8.78h20.43v9.58h-20.43v9.58h22.82v9.58h-33.21v-47.11Z"/>
  </g>
  <circle class="cls-3" cx="267" cy="245" r="32"/>
  <circle class="cls-3" cx="639" cy="245" r="32"/>
  <circle class="cls-3" cx="1003" cy="245" r="32"/>
</svg>