<?xml version="1.0" encoding="UTF-8"?>
<svg id="Layer_1" data-name="Layer 1" xmlns="http://www.w3.org/2000/svg" viewBox="0 0 1280 554" preserveAspectRatio="none">
  <defs>
    <style>
      .cls-1 {
        fill: #fff;
      }

      .cls-2 {
        fill: #ffd393;
      }

      .cls-3 {
        fill: #ef3f32;
      }

      .cls-4 {
        fill: #ccebf5;
      }

      .cls-5 {
        fill: #709fd4;
      }

      .cls-6 {
        fill: #323970;
      }

      .cls-6, .cls-7 {
        stroke: #231f20;
        stroke-miterlimit: 10;
      }

      .cls-7 {
        fill: #babdc6;
      }
    </style>
  </defs>
  <rect class="cls-6" x="-.03" y="-2.47" width="1281" height="556.97"/>
  <rect class="cls-7" x="-.03" y="442.53" width="1281" height="110.97"/>
  <g>
    <path class="cls-3" d="M95.41,124.01c-1.41-1.78-3.32-3.1-5.74-3.95-2.41-.85-4.7-1.28-6.85-1.28-1.26,0-2.56,.15-3.9,.45-1.34,.3-2.6,.76-3.79,1.39-1.19,.63-2.15,1.47-2.89,2.51-.74,1.04-1.11,2.3-1.11,3.79,0,2.38,.89,4.2,2.67,5.46,1.78,1.26,4.03,2.34,6.74,3.23,2.71,.89,5.62,1.78,8.74,2.67,3.12,.89,6.03,2.15,8.74,3.79,2.71,1.63,4.96,3.82,6.74,6.57,1.78,2.75,2.67,6.42,2.67,11.03s-.82,8.2-2.45,11.47c-1.63,3.27-3.84,5.98-6.63,8.13-2.79,2.15-6.01,3.75-9.69,4.79-3.67,1.04-7.55,1.56-11.64,1.56-5.12,0-9.88-.78-14.26-2.34s-8.46-4.08-12.25-7.57l12.36-13.59c1.78,2.38,4.03,4.21,6.74,5.51,2.71,1.3,5.51,1.95,8.41,1.95,1.41,0,2.84-.17,4.29-.5s2.75-.83,3.9-1.5c1.15-.67,2.08-1.52,2.78-2.56,.71-1.04,1.06-2.26,1.06-3.67,0-2.38-.91-4.25-2.73-5.62-1.82-1.37-4.1-2.54-6.85-3.51-2.75-.96-5.72-1.93-8.91-2.9-3.19-.96-6.16-2.26-8.91-3.9-2.75-1.63-5.03-3.79-6.85-6.46-1.82-2.67-2.73-6.2-2.73-10.58s.83-7.94,2.51-11.14c1.67-3.19,3.9-5.86,6.68-8.02,2.78-2.15,6-3.77,9.63-4.84,3.64-1.08,7.39-1.61,11.25-1.61,4.45,0,8.76,.63,12.92,1.89,4.16,1.26,7.91,3.38,11.25,6.35l-11.92,13.03Z"/>
    <path class="cls-3" d="M135.61,120.11h-22.5v-15.37h62.37v15.37h-22.5v63.48h-17.37v-63.48Z"/>
    <path class="cls-3" d="M180.04,144.17c0-6.31,1.06-12.03,3.17-17.15,2.12-5.12,5.07-9.48,8.85-13.09,3.79-3.6,8.28-6.37,13.48-8.3,5.2-1.93,10.88-2.9,17.04-2.9s11.84,.97,17.04,2.9c5.2,1.93,9.69,4.7,13.48,8.3,3.79,3.6,6.74,7.96,8.85,13.09,2.12,5.12,3.17,10.84,3.17,17.15s-1.06,12.03-3.17,17.15c-2.12,5.12-5.07,9.48-8.85,13.09-3.79,3.6-8.28,6.37-13.48,8.3-5.2,1.93-10.88,2.9-17.04,2.9s-11.84-.97-17.04-2.9c-5.2-1.93-9.69-4.69-13.48-8.3-3.79-3.6-6.74-7.96-8.85-13.09-2.12-5.12-3.17-10.84-3.17-17.15Zm18.04,0c0,3.71,.57,7.11,1.73,10.19,1.15,3.08,2.8,5.75,4.96,8.02,2.15,2.27,4.73,4.03,7.74,5.29,3.01,1.26,6.37,1.89,10.08,1.89s7.07-.63,10.08-1.89c3.01-1.26,5.58-3.02,7.74-5.29,2.15-2.26,3.8-4.94,4.96-8.02,1.15-3.08,1.73-6.48,1.73-10.19s-.58-7.02-1.73-10.13c-1.15-3.12-2.8-5.81-4.96-8.07-2.15-2.26-4.73-4.03-7.74-5.29-3.01-1.26-6.37-1.89-10.08-1.89s-7.07,.63-10.08,1.89c-3.01,1.26-5.59,3.03-7.74,5.29-2.15,2.27-3.8,4.96-4.96,8.07-1.15,3.12-1.73,6.5-1.73,10.13Z"/>
    <path class="cls-3" d="M276.93,104.75h29.29c4.08,0,7.94,.37,11.58,1.11,3.64,.74,6.81,2.02,9.52,3.84,2.71,1.82,4.86,4.27,6.46,7.35,1.6,3.08,2.39,6.96,2.39,11.64s-.74,8.46-2.23,11.58c-1.49,3.12-3.53,5.61-6.12,7.46-2.6,1.86-5.68,3.17-9.24,3.95-3.56,.78-7.42,1.17-11.58,1.17h-12.7v30.74h-17.37V104.75Zm17.37,33.41h11.58c1.56,0,3.06-.15,4.51-.45,1.45-.3,2.75-.8,3.9-1.5,1.15-.71,2.08-1.67,2.78-2.9,.71-1.23,1.06-2.77,1.06-4.62,0-2-.46-3.62-1.39-4.84-.93-1.23-2.12-2.17-3.56-2.84-1.45-.67-3.06-1.09-4.84-1.28-1.78-.18-3.49-.28-5.12-.28h-8.91v18.71Z"/>
    <path class="cls-3" d="M57.1,205.75h53.57v16.04h-36.19v14.7h34.19v16.04h-34.19v16.04h38.2v16.04H57.1v-78.85Z"/>
    <path class="cls-3" d="M152.54,205.75h14.37l34.3,78.85h-19.6l-6.79-16.7h-30.63l-6.57,16.7h-19.16l34.08-78.85Zm6.68,22.94l-9.58,24.5h19.27l-9.69-24.5Z"/>
    <path class="cls-3" d="M209.11,205.75h30.51c4.01,0,7.81,.39,11.42,1.17,3.6,.78,6.75,2.08,9.47,3.9,2.71,1.82,4.86,4.27,6.46,7.35,1.6,3.08,2.39,6.92,2.39,11.53,0,5.57-1.45,10.3-4.34,14.2-2.9,3.9-7.13,6.37-12.7,7.41l20.04,33.3h-20.83l-16.48-31.52h-8.58v31.52h-17.37v-78.85Zm17.37,32.63h10.25c1.56,0,3.21-.06,4.96-.17,1.74-.11,3.32-.45,4.73-1,1.41-.56,2.58-1.43,3.51-2.62,.93-1.19,1.39-2.86,1.39-5.01,0-2-.41-3.6-1.23-4.79-.82-1.19-1.86-2.1-3.12-2.73-1.26-.63-2.71-1.06-4.34-1.28-1.63-.22-3.23-.33-4.79-.33h-11.36v17.93Z"/>
    <path class="cls-3" d="M281.94,205.75h17.37v62.81h32.18v16.04h-49.56v-78.85Z"/>
    <path class="cls-3" d="M348.09,250.96l-29.62-45.21h21.6l16.71,29.51,17.71-29.51h20.6l-29.62,45.21v33.63h-17.37v-33.63Z"/>
  </g>
  <g>
    <path class="cls-2" d="M52.91,33.95h11.83c1.65,0,3.21,.15,4.68,.45,1.47,.3,2.75,.82,3.84,1.55,1.09,.73,1.96,1.72,2.61,2.97,.64,1.24,.97,2.81,.97,4.7s-.3,3.42-.9,4.68c-.6,1.26-1.42,2.26-2.47,3.01-1.05,.75-2.29,1.28-3.73,1.6s-3,.47-4.68,.47h-5.13v12.41h-7.02v-31.84Zm7.02,13.49h4.68c.63,0,1.24-.06,1.82-.18,.58-.12,1.11-.32,1.57-.61,.46-.28,.84-.67,1.12-1.17s.43-1.12,.43-1.87c0-.81-.19-1.46-.56-1.96s-.85-.88-1.44-1.15c-.58-.27-1.24-.44-1.96-.52-.72-.07-1.41-.11-2.07-.11h-3.6v7.55Z"/>
    <path class="cls-2" d="M88.39,33.95h5.8l13.85,31.84h-7.92l-2.74-6.75h-12.37l-2.65,6.75h-7.73l13.76-31.84Zm2.7,9.26l-3.87,9.89h7.78l-3.91-9.89Z"/>
    <path class="cls-2" d="M115.73,52.21l-11.96-18.26h8.72l6.75,11.92,7.15-11.92h8.32l-11.96,18.26v13.58h-7.02v-13.58Z"/>
    <path class="cls-2" d="M160.84,33.95h5.8l13.85,31.84h-7.92l-2.74-6.75h-12.37l-2.65,6.75h-7.73l13.76-31.84Zm2.7,9.26l-3.87,9.89h7.78l-3.91-9.89Z"/>
    <path class="cls-2" d="M185.7,40.16h-9.08v-6.21h25.18v6.21h-9.08v25.63h-7.01v-25.63Z"/>
    <path class="cls-2" d="M211.52,40.16h-9.08v-6.21h25.18v6.21h-9.08v25.63h-7.02v-25.63Z"/>
    <path class="cls-2" d="M231.44,33.95h21.63v6.48h-14.61v5.94h13.8v6.48h-13.8v6.48h15.42v6.48h-22.44v-31.84Z"/>
    <path class="cls-2" d="M259.5,33.95h9.53l13.54,22.12h.09v-22.12h7.02v31.84h-9.17l-13.9-22.66h-.09v22.66h-7.01v-31.84Z"/>
    <path class="cls-2" d="M302.31,40.16h-9.08v-6.21h25.18v6.21h-9.08v25.63h-7.01v-25.63Z"/>
    <path class="cls-2" d="M321.87,33.95h7.02v31.84h-7.02v-31.84Z"/>
    <path class="cls-2" d="M333.56,49.87c0-2.55,.43-4.86,1.28-6.93,.85-2.07,2.05-3.83,3.58-5.28,1.53-1.45,3.34-2.57,5.44-3.35,2.1-.78,4.39-1.17,6.88-1.17s4.78,.39,6.88,1.17c2.1,.78,3.91,1.9,5.44,3.35,1.53,1.45,2.72,3.22,3.57,5.28,.86,2.07,1.28,4.38,1.28,6.93s-.43,4.86-1.28,6.93c-.85,2.07-2.05,3.83-3.57,5.28-1.53,1.45-3.34,2.57-5.44,3.35-2.1,.78-4.39,1.17-6.88,1.17s-4.78-.39-6.88-1.17c-2.1-.78-3.91-1.9-5.44-3.35-1.53-1.45-2.72-3.22-3.58-5.28-.85-2.07-1.28-4.38-1.28-6.93Zm7.29,0c0,1.5,.23,2.87,.7,4.11,.46,1.24,1.13,2.32,2,3.24,.87,.92,1.91,1.63,3.13,2.14,1.21,.51,2.57,.76,4.07,.76s2.86-.25,4.07-.76c1.21-.51,2.25-1.22,3.12-2.14,.87-.91,1.54-1.99,2-3.24,.46-1.24,.7-2.62,.7-4.11s-.23-2.83-.7-4.09c-.46-1.26-1.13-2.35-2-3.26-.87-.91-1.91-1.63-3.12-2.14-1.21-.51-2.57-.76-4.07-.76s-2.86,.26-4.07,.76c-1.21,.51-2.26,1.22-3.13,2.14-.87,.91-1.54,2-2,3.26-.47,1.26-.7,2.62-.7,4.09Z"/>
    <path class="cls-2" d="M372.68,33.95h9.53l13.54,22.12h.09v-22.12h7.02v31.84h-9.17l-13.9-22.66h-.09v22.66h-7.01v-31.84Z"/>
    <path class="cls-2" d="M408.61,47.53c0-.57,.1-1.11,.31-1.62,.21-.51,.5-.95,.88-1.33,.38-.37,.82-.67,1.33-.88,.51-.21,1.05-.31,1.62-.31s1.11,.1,1.62,.31c.51,.21,.95,.5,1.33,.88,.38,.38,.67,.82,.88,1.33,.21,.51,.31,1.05,.31,1.62s-.11,1.11-.31,1.62c-.21,.51-.5,.95-.88,1.33-.38,.38-.82,.67-1.33,.88-.51,.21-1.05,.31-1.62,.31s-1.11-.1-1.62-.31c-.51-.21-.95-.5-1.33-.88-.38-.37-.67-.82-.88-1.33-.21-.51-.31-1.05-.31-1.62Zm0,14.39c0-.57,.1-1.11,.31-1.62,.21-.51,.5-.95,.88-1.33,.38-.37,.82-.67,1.33-.88,.51-.21,1.05-.31,1.62-.31s1.11,.11,1.62,.31c.51,.21,.95,.5,1.33,.88,.38,.38,.67,.82,.88,1.33,.21,.51,.31,1.05,.31,1.62s-.11,1.11-.31,1.62c-.21,.51-.5,.95-.88,1.33-.38,.38-.82,.67-1.33,.88s-1.05,.31-1.62,.31-1.11-.11-1.62-.31-.95-.5-1.33-.88c-.38-.37-.67-.82-.88-1.33-.21-.51-.31-1.05-.31-1.62Z"/>
  </g>
  <g>
    <path class="cls-2" d="M50.33,324.44h10.52c2.55,0,4.97,.29,7.26,.85,2.29,.57,4.29,1.49,6,2.77,1.71,1.27,3.07,2.93,4.07,4.97,1,2.04,1.51,4.51,1.51,7.42,0,2.58-.49,4.85-1.46,6.81-.97,1.96-2.29,3.61-3.93,4.95-1.65,1.33-3.55,2.35-5.71,3.04-2.16,.69-4.42,1.03-6.79,1.03h-11.47v-31.84Zm7.01,25.36h3.64c1.62,0,3.13-.16,4.52-.49,1.39-.33,2.6-.88,3.62-1.64,1.02-.76,1.82-1.77,2.41-3.01,.58-1.24,.88-2.77,.88-4.56,0-1.56-.29-2.92-.88-4.07-.58-1.15-1.37-2.11-2.36-2.86-.99-.75-2.15-1.31-3.49-1.69-1.33-.37-2.74-.56-4.2-.56h-4.14v18.89Z"/>
    <path class="cls-2" d="M82.76,340.36c0-2.55,.43-4.86,1.28-6.93,.85-2.07,2.05-3.83,3.58-5.28,1.53-1.45,3.34-2.57,5.44-3.35,2.1-.78,4.39-1.17,6.88-1.17s4.78,.39,6.88,1.17c2.1,.78,3.91,1.9,5.44,3.35,1.53,1.45,2.72,3.22,3.57,5.28,.86,2.07,1.28,4.38,1.28,6.93s-.43,4.86-1.28,6.93c-.85,2.07-2.05,3.83-3.57,5.28-1.53,1.45-3.34,2.57-5.44,3.35-2.1,.78-4.39,1.17-6.88,1.17s-4.78-.39-6.88-1.17c-2.1-.78-3.91-1.9-5.44-3.35-1.53-1.45-2.72-3.22-3.58-5.28-.85-2.07-1.28-4.38-1.28-6.93Zm7.29,0c0,1.5,.23,2.87,.7,4.11,.46,1.24,1.13,2.32,2,3.24,.87,.92,1.91,1.63,3.13,2.14,1.21,.51,2.57,.76,4.07,.76s2.86-.25,4.07-.76c1.21-.51,2.25-1.22,3.12-2.14,.87-.91,1.54-1.99,2-3.24,.46-1.24,.7-2.62,.7-4.11s-.23-2.83-.7-4.09c-.46-1.26-1.13-2.35-2-3.26-.87-.91-1.91-1.63-3.12-2.14-1.21-.51-2.57-.76-4.07-.76s-2.86,.26-4.07,.76c-1.21,.51-2.26,1.22-3.13,2.14-.87,.91-1.54,2-2,3.26-.47,1.26-.7,2.62-.7,4.09Z"/>
    <path class="cls-2" d="M121.88,324.44h9.53l13.54,22.12h.09v-22.12h7.02v31.84h-9.17l-13.9-22.66h-.09v22.66h-7.01v-31.84Z"/>
    <path class="cls-2" d="M162.8,337.12h-5.76l3.33-12.68h6.48l-4.05,12.68Z"/>
    <path class="cls-2" d="M178,330.64h-9.08v-6.21h25.18v6.21h-9.08v25.63h-7.02v-25.63Z"/>
    <path class="cls-2" d="M209.25,340.36c0-2.55,.43-4.86,1.28-6.93,.85-2.07,2.04-3.83,3.57-5.28,1.53-1.45,3.34-2.57,5.44-3.35,2.1-.78,4.39-1.17,6.88-1.17s4.78,.39,6.88,1.17c2.1,.78,3.91,1.9,5.44,3.35,1.53,1.45,2.72,3.22,3.58,5.28,.85,2.07,1.28,4.38,1.28,6.93s-.43,4.86-1.28,6.93c-.85,2.07-2.05,3.83-3.58,5.28-1.53,1.45-3.34,2.57-5.44,3.35s-4.39,1.17-6.88,1.17-4.78-.39-6.88-1.17c-2.1-.78-3.91-1.9-5.44-3.35-1.53-1.45-2.72-3.22-3.57-5.28-.86-2.07-1.28-4.38-1.28-6.93Zm7.29,0c0,1.5,.23,2.87,.7,4.11,.46,1.24,1.13,2.32,2,3.24,.87,.92,1.91,1.63,3.12,2.14,1.21,.51,2.57,.76,4.07,.76s2.86-.25,4.07-.76c1.21-.51,2.25-1.22,3.13-2.14,.87-.91,1.54-1.99,2-3.24,.46-1.24,.7-2.62,.7-4.11s-.23-2.83-.7-4.09c-.46-1.26-1.13-2.35-2-3.26-.87-.91-1.91-1.63-3.13-2.14-1.21-.51-2.57-.76-4.07-.76s-2.86,.26-4.07,.76c-1.21,.51-2.26,1.22-3.12,2.14-.87,.91-1.54,2-2,3.26-.47,1.26-.7,2.62-.7,4.09Z"/>
    <path class="cls-2" d="M245.23,324.44h8l7.87,20.87h.09l8-20.87h7.51l-13.13,31.84h-5.62l-12.73-31.84Z"/>
    <path class="cls-2" d="M280.3,324.44h21.63v6.48h-14.61v5.94h13.81v6.48h-13.81v6.48h15.42v6.48h-22.44v-31.84Z"/>
    <path class="cls-2" d="M308.36,324.44h12.32c1.62,0,3.16,.16,4.61,.47,1.45,.31,2.73,.84,3.82,1.57,1.09,.73,1.96,1.72,2.61,2.97,.64,1.24,.97,2.8,.97,4.65,0,2.25-.59,4.16-1.75,5.73-1.17,1.57-2.88,2.57-5.13,2.99l8.09,13.45h-8.41l-6.66-12.73h-3.46v12.73h-7.01v-31.84Zm7.01,13.18h4.14c.63,0,1.3-.02,2-.07,.7-.05,1.34-.18,1.91-.4,.57-.23,1.04-.58,1.42-1.06,.38-.48,.56-1.15,.56-2.02,0-.81-.17-1.45-.5-1.93-.33-.48-.75-.85-1.26-1.1-.51-.25-1.1-.43-1.75-.52-.66-.09-1.3-.13-1.93-.13h-4.59v7.24Z"/>
    <path class="cls-2" d="M351.08,324.44h21.36v6.48h-14.35v6.48h13.27v6.48h-13.27v12.41h-7.02v-31.84Z"/>
    <path class="cls-2" d="M377.39,324.44h7.02v31.84h-7.02v-31.84Z"/>
    <path class="cls-2" d="M391.06,324.44h7.01v25.36h13v6.48h-20.01v-31.84Z"/>
    <path class="cls-2" d="M415.21,324.44h7.02v25.36h13v6.48h-20.01v-31.84Z"/>
  </g>
  <g>
    <path class="cls-1" d="M52.49,469.33h19.72c2.75,0,5.35,.25,7.8,.75,2.45,.5,4.58,1.36,6.41,2.59,1.82,1.23,3.27,2.87,4.35,4.95,1.07,2.07,1.61,4.69,1.61,7.83s-.5,5.7-1.5,7.8c-1,2.1-2.38,3.77-4.12,5.02-1.75,1.25-3.82,2.14-6.22,2.66-2.4,.52-5,.79-7.8,.79h-8.55v20.69h-11.69v-53.08Zm11.69,22.49h7.8c1.05,0,2.06-.1,3.04-.3,.97-.2,1.85-.54,2.62-1.01,.77-.47,1.4-1.12,1.87-1.95,.47-.82,.71-1.86,.71-3.11,0-1.35-.31-2.44-.94-3.26s-1.42-1.46-2.4-1.91-2.06-.74-3.26-.86c-1.2-.12-2.35-.19-3.45-.19h-6v12.59Z"/>
    <path class="cls-1" d="M99.72,469.33h20.54c2.7,0,5.26,.26,7.68,.79,2.42,.52,4.55,1.4,6.37,2.62,1.82,1.23,3.27,2.87,4.35,4.95,1.07,2.07,1.61,4.66,1.61,7.76,0,3.75-.97,6.93-2.92,9.56-1.95,2.62-4.8,4.29-8.55,4.98l13.49,22.42h-14.02l-11.09-21.22h-5.77v21.22h-11.7v-53.08Zm11.7,21.97h6.9c1.05,0,2.16-.04,3.34-.11,1.17-.07,2.24-.3,3.19-.67,.95-.38,1.74-.96,2.36-1.76,.62-.8,.94-1.92,.94-3.37,0-1.35-.27-2.42-.82-3.22-.55-.8-1.25-1.41-2.1-1.84-.85-.42-1.83-.71-2.92-.86-1.1-.15-2.17-.23-3.22-.23h-7.65v12.07Z"/>
    <path class="cls-1" d="M145.45,495.87c0-4.25,.71-8.1,2.14-11.54,1.42-3.45,3.41-6.38,5.96-8.81,2.55-2.42,5.57-4.29,9.07-5.59,3.5-1.3,7.32-1.95,11.47-1.95s7.97,.65,11.47,1.95c3.5,1.3,6.52,3.16,9.07,5.59,2.55,2.42,4.54,5.36,5.96,8.81,1.42,3.45,2.14,7.3,2.14,11.54s-.71,8.1-2.14,11.54c-1.42,3.45-3.41,6.38-5.96,8.81-2.55,2.42-5.57,4.29-9.07,5.58-3.5,1.3-7.32,1.95-11.47,1.95s-7.97-.65-11.47-1.95c-3.5-1.3-6.52-3.16-9.07-5.58-2.55-2.42-4.54-5.36-5.96-8.81-1.42-3.45-2.14-7.3-2.14-11.54Zm12.14,0c0,2.5,.39,4.79,1.16,6.86,.77,2.07,1.89,3.87,3.34,5.4,1.45,1.53,3.19,2.71,5.21,3.56,2.02,.85,4.28,1.27,6.78,1.27s4.76-.42,6.78-1.27c2.02-.85,3.76-2.04,5.21-3.56,1.45-1.52,2.56-3.32,3.34-5.4,.77-2.07,1.16-4.36,1.16-6.86s-.39-4.72-1.16-6.82c-.78-2.1-1.89-3.91-3.34-5.44-1.45-1.52-3.19-2.71-5.21-3.56-2.02-.85-4.29-1.27-6.78-1.27s-4.76,.43-6.78,1.27c-2.02,.85-3.76,2.04-5.21,3.56-1.45,1.52-2.56,3.34-3.34,5.44-.78,2.1-1.16,4.37-1.16,6.82Z"/>
    <path class="cls-1" d="M210.67,469.33h17.54c4.25,0,8.28,.48,12.11,1.42,3.82,.95,7.16,2.49,10.01,4.61,2.85,2.12,5.11,4.89,6.78,8.28,1.67,3.4,2.51,7.52,2.51,12.37,0,4.3-.81,8.08-2.44,11.36-1.62,3.27-3.81,6.02-6.56,8.25-2.75,2.22-5.92,3.91-9.52,5.06-3.6,1.15-7.37,1.72-11.32,1.72h-19.12v-53.08Zm11.7,42.28h6.07c2.7,0,5.21-.27,7.53-.82,2.32-.55,4.33-1.46,6.03-2.74,1.7-1.27,3.04-2.95,4.01-5.02,.97-2.07,1.46-4.61,1.46-7.61,0-2.6-.49-4.86-1.46-6.78-.97-1.92-2.29-3.51-3.94-4.76-1.65-1.25-3.59-2.19-5.81-2.81-2.22-.62-4.56-.94-7.01-.94h-6.9v31.49Z"/>
    <path class="cls-1" d="M312.32,501.94c0,3.15-.48,6.05-1.42,8.7-.95,2.65-2.36,4.95-4.24,6.9-1.87,1.95-4.21,3.47-7.01,4.57-2.8,1.1-6.02,1.65-9.67,1.65s-6.95-.55-9.75-1.65c-2.8-1.1-5.14-2.62-7.01-4.57-1.87-1.95-3.29-4.25-4.24-6.9-.95-2.65-1.42-5.55-1.42-8.7v-32.61h11.7v32.16c0,1.65,.26,3.17,.79,4.57,.52,1.4,1.26,2.61,2.21,3.64,.95,1.02,2.09,1.82,3.41,2.4,1.32,.57,2.76,.86,4.31,.86s2.97-.29,4.27-.86c1.3-.57,2.42-1.37,3.37-2.4,.95-1.02,1.69-2.24,2.21-3.64,.52-1.4,.79-2.92,.79-4.57v-32.16h11.69v32.61Z"/>
    <path class="cls-1" d="M357.83,483.12c-1.15-1.4-2.56-2.47-4.24-3.22-1.67-.75-3.61-1.12-5.81-1.12s-4.24,.43-6.11,1.27c-1.87,.85-3.5,2.04-4.87,3.56-1.38,1.52-2.45,3.34-3.22,5.44-.78,2.1-1.16,4.37-1.16,6.82s.39,4.79,1.16,6.86c.77,2.07,1.84,3.87,3.19,5.4,1.35,1.53,2.93,2.71,4.76,3.56,1.82,.85,3.79,1.27,5.88,1.27,2.4,0,4.52-.5,6.37-1.5,1.85-1,3.37-2.4,4.57-4.2l9.75,7.27c-2.25,3.15-5.1,5.47-8.55,6.97-3.45,1.5-7,2.25-10.64,2.25-4.15,0-7.97-.65-11.47-1.95-3.5-1.3-6.52-3.16-9.07-5.58-2.55-2.42-4.54-5.36-5.96-8.81-1.42-3.45-2.14-7.3-2.14-11.54s.71-8.1,2.14-11.54c1.42-3.45,3.41-6.38,5.96-8.81,2.55-2.42,5.57-4.29,9.07-5.59,3.5-1.3,7.32-1.95,11.47-1.95,1.5,0,3.06,.14,4.68,.41,1.62,.28,3.22,.71,4.8,1.31,1.58,.6,3.09,1.4,4.54,2.4,1.45,1,2.75,2.22,3.9,3.67l-9,7.35Z"/>
    <path class="cls-1" d="M384.74,479.67h-15.14v-10.35h41.98v10.35h-15.14v42.73h-11.7v-42.73Z"/>
    <path class="cls-1" d="M439.69,469.33h20.54c2.7,0,5.26,.26,7.68,.79,2.42,.52,4.55,1.4,6.37,2.62,1.82,1.23,3.27,2.87,4.35,4.95,1.07,2.07,1.61,4.66,1.61,7.76,0,3.75-.97,6.93-2.92,9.56-1.95,2.62-4.8,4.29-8.55,4.98l13.49,22.42h-14.02l-11.09-21.22h-5.77v21.22h-11.69v-53.08Zm11.69,21.97h6.9c1.05,0,2.16-.04,3.34-.11,1.17-.07,2.24-.3,3.19-.67,.95-.38,1.74-.96,2.36-1.76,.62-.8,.94-1.92,.94-3.37,0-1.35-.28-2.42-.82-3.22-.55-.8-1.25-1.41-2.1-1.84-.85-.42-1.83-.71-2.92-.86-1.1-.15-2.17-.23-3.22-.23h-7.65v12.07Z"/>
    <path class="cls-1" d="M488.71,469.33h36.06v10.8h-24.36v9.9h23.01v10.79h-23.01v10.8h25.71v10.79h-37.41v-53.08Z"/>
    <path class="cls-1" d="M535.94,469.33h35.61v10.8h-23.91v10.79h22.12v10.8h-22.12v20.69h-11.69v-53.08Z"/>
    <path class="cls-1" d="M579.8,469.33h11.69v53.08h-11.69v-53.08Z"/>
    <path class="cls-1" d="M602.59,469.33h11.69v42.28h21.67v10.79h-33.36v-53.08Z"/>
    <path class="cls-1" d="M642.84,469.33h11.69v42.28h21.67v10.79h-33.36v-53.08Z"/>
    <path class="cls-1" d="M682.5,469.33h11.69v53.08h-11.69v-53.08Z"/>
    <path class="cls-1" d="M704.84,469.33h15.89l22.56,36.88h.15v-36.88h11.69v53.08h-15.29l-23.16-37.78h-.15v37.78h-11.69v-53.08Z"/>
    <path class="cls-1" d="M813.99,518.66c-3.45,1.8-7.05,3.1-10.8,3.9-3.75,.8-7.57,1.2-11.47,1.2-4.15,0-7.97-.65-11.47-1.95-3.5-1.3-6.52-3.16-9.07-5.58-2.55-2.42-4.54-5.36-5.96-8.81-1.42-3.45-2.14-7.3-2.14-11.54s.71-8.1,2.14-11.54c1.42-3.45,3.41-6.38,5.96-8.81,2.55-2.42,5.57-4.29,9.07-5.59,3.5-1.3,7.32-1.95,11.47-1.95s8.16,.51,11.73,1.54c3.57,1.02,6.71,2.79,9.41,5.29l-8.25,9c-1.6-1.65-3.4-2.9-5.4-3.75-2-.85-4.5-1.27-7.5-1.27-2.5,0-4.76,.43-6.78,1.27-2.02,.85-3.76,2.04-5.21,3.56-1.45,1.52-2.56,3.34-3.34,5.44-.78,2.1-1.16,4.37-1.16,6.82s.39,4.79,1.16,6.86c.77,2.07,1.89,3.87,3.34,5.4,1.45,1.53,3.19,2.71,5.21,3.56,2.02,.85,4.28,1.27,6.78,1.27s4.75-.29,6.6-.86c1.85-.57,3.32-1.16,4.42-1.76v-8.62h-9.52v-10.8h20.77v27.74Z"/>
  </g>
  <rect class="cls-4" x="939.48" y="107.32" width="191.78" height="391.71"/>
  <rect class="cls-4" x="992.45" y="58.95" width="81.45" height="47.15"/>
  <rect class="cls-5" x="939.78" y="214.17" width="191.78" height="285.21"/>
  <polygon class="cls-3" points="407.26 236.95 912.32 239.95 908.77 264.95 976 228.6 914.54 186.1 912.32 206.95 407.26 201.95 407.26 236.95"/>
</svg>