<?xml version="1.0" encoding="UTF-8"?>
<svg id="Layer_1" data-name="Layer 1" xmlns="http://www.w3.org/2000/svg" viewBox="0 0 1280 554" preserveAspectRatio="none">
  <defs>
    <style>
      .cls-1 {
        fill: #fff;
        font-size: 74.97px;
      }

      .cls-1, .cls-2, .cls-3 {
        font-family: Avenir-Black, Avenir;
        font-weight: 800;
      }

      .cls-4 {
        letter-spacing: -.09em;
      }

      .cls-5, .cls-2 {
        fill: #ef3f32;
      }

      .cls-6 {
        fill: #ccebf5;
      }

      .cls-7 {
        fill: #709fd4;
      }

      .cls-2 {
        font-size: 111.37px;
        stroke: #666868;
        stroke-width: .5px;
      }

      .cls-2, .cls-8, .cls-9 {
        stroke-miterlimit: 10;
      }

      .cls-3 {
        fill: #ffd393;
        font-size: 44.97px;
      }

      .cls-10 {
        letter-spacing: -.07em;
      }

      .cls-11 {
        letter-spacing: 0em;
      }

      .cls-8 {
        fill: #323970;
      }

      .cls-8, .cls-9 {
        stroke: #231f20;
      }

      .cls-9 {
        fill: #babdc6;
      }

      .cls-12 {
        letter-spacing: -.11em;
      }
    </style>
  </defs>
  <rect class="cls-8" x="-.03" y="-2.47" width="1281" height="556.97"/>
  <rect class="cls-9" x="-.03" y="442.53" width="1281" height="110.97"/>
  <text class="cls-2" transform="translate(48.41 183.59)"><tspan x="0" y="0">STOP</tspan><tspan x="0" y="101">EAR</tspan><tspan class="cls-12" x="224.84" y="101">L</tspan><tspan x="272.29" y="101">Y</tspan></text>
  <text class="cls-3" transform="translate(49.67 65.79)"><tspan class="cls-10" x="0" y="0">PA</tspan><tspan class="cls-11" x="55" y="0">Y </tspan><tspan class="cls-4" x="97.45" y="0">A</tspan><tspan x="126.63" y="0">TTENTION:</tspan></text>
  <text class="cls-3" transform="translate(47.1 356.28)"><tspan x="0" y="0">DON’T OVER FILL </tspan></text>
  <text class="cls-1" transform="translate(47.09 522.4)"><tspan x="0" y="0">PRODUCT REFILLING</tspan></text>
  <rect class="cls-6" x="939.48" y="107.32" width="191.78" height="391.71"/>
  <rect class="cls-6" x="992.45" y="58.95" width="81.45" height="47.15"/>
  <rect class="cls-7" x="939.78" y="214.17" width="191.78" height="285.21"/>
  <polygon class="cls-5" points="407.26 239.95 913.21 242.95 909.65 267.95 977 231.6 915.43 189.1 913.21 209.95 407.26 204.95 407.26 239.95"/>
</svg>