<?xml version="1.0" encoding="UTF-8"?>
<svg id="Layer_1" data-name="Layer 1" xmlns="http://www.w3.org/2000/svg" viewBox="0 0 1280 554" preserveAspectRatio="none">
  <defs>
    <style>
      .cls-1, .cls-2 {
        fill: #ef3f32;
      }

      .cls-3 {
        fill: #ccebf5;
      }

      .cls-4 {
        fill: #606161;
      }

      .cls-5 {
        fill: #709fd4;
      }

      .cls-6 {
        fill: #4e7bbe;
      }

      .cls-2 {
        stroke: #666868;
        stroke-miterlimit: 10;
        stroke-width: .5px;
      }
    </style>
  </defs>
  <rect class="cls-3" x=".91" y="-1.6" width="1279" height="554"/>
  <g>
    <path class="cls-2" d="M60.18,131.66h29.29c4.08,0,7.94,.37,11.58,1.11,3.64,.74,6.81,2.02,9.52,3.84,2.71,1.82,4.86,4.27,6.46,7.35,1.6,3.08,2.39,6.96,2.39,11.64s-.74,8.46-2.23,11.58c-1.49,3.12-3.53,5.61-6.12,7.46-2.6,1.86-5.68,3.17-9.24,3.95-3.56,.78-7.42,1.17-11.58,1.17h-12.7v30.74h-17.37v-78.85Zm17.37,33.41h11.58c1.56,0,3.06-.15,4.51-.45,1.45-.3,2.75-.8,3.9-1.5,1.15-.71,2.08-1.67,2.78-2.9,.7-1.22,1.06-2.76,1.06-4.62,0-2-.46-3.62-1.39-4.84-.93-1.23-2.12-2.17-3.56-2.84s-3.06-1.09-4.84-1.28c-1.78-.18-3.49-.28-5.12-.28h-8.91v18.71Z"/>
    <path class="cls-2" d="M130.34,131.66h30.51c4.01,0,7.81,.39,11.42,1.17,3.6,.78,6.75,2.08,9.47,3.9,2.71,1.82,4.86,4.27,6.46,7.35,1.6,3.08,2.39,6.92,2.39,11.53,0,5.57-1.45,10.3-4.34,14.2-2.9,3.9-7.13,6.37-12.7,7.41l20.05,33.3h-20.83l-16.48-31.52h-8.58v31.52h-17.37v-78.85Zm17.37,32.63h10.25c1.56,0,3.21-.06,4.96-.17,1.74-.11,3.32-.45,4.73-1,1.41-.56,2.58-1.43,3.51-2.62,.93-1.19,1.39-2.86,1.39-5.01,0-2-.41-3.6-1.23-4.79-.82-1.19-1.86-2.1-3.12-2.73-1.26-.63-2.71-1.06-4.34-1.28-1.63-.22-3.23-.33-4.79-.33h-11.36v17.93Z"/>
    <path class="cls-2" d="M203.18,131.66h53.57v16.04h-36.19v14.7h34.19v16.04h-34.19v16.04h38.2v16.04h-55.57v-78.85Z"/>
    <path class="cls-2" d="M311.64,150.92c-1.41-1.78-3.32-3.1-5.74-3.95-2.41-.85-4.7-1.28-6.85-1.28-1.26,0-2.56,.15-3.9,.45-1.34,.3-2.6,.76-3.79,1.39-1.19,.63-2.15,1.47-2.9,2.51-.74,1.04-1.11,2.3-1.11,3.79,0,2.38,.89,4.2,2.67,5.46,1.78,1.26,4.03,2.34,6.74,3.23,2.71,.89,5.62,1.78,8.74,2.67,3.12,.89,6.03,2.15,8.74,3.79,2.71,1.63,4.96,3.83,6.74,6.57,1.78,2.75,2.67,6.42,2.67,11.03s-.82,8.2-2.45,11.47c-1.63,3.27-3.84,5.98-6.63,8.13-2.78,2.15-6.01,3.75-9.69,4.79-3.67,1.04-7.56,1.56-11.64,1.56-5.12,0-9.88-.78-14.25-2.34-4.38-1.56-8.46-4.08-12.25-7.57l12.36-13.59c1.78,2.38,4.03,4.21,6.74,5.51,2.71,1.3,5.51,1.95,8.41,1.95,1.41,0,2.84-.17,4.29-.5s2.75-.83,3.9-1.5c1.15-.67,2.08-1.52,2.78-2.56,.7-1.04,1.06-2.26,1.06-3.67,0-2.38-.91-4.25-2.73-5.62-1.82-1.37-4.1-2.54-6.85-3.51-2.75-.96-5.72-1.93-8.91-2.9-3.19-.96-6.16-2.26-8.91-3.9-2.75-1.63-5.03-3.79-6.85-6.46-1.82-2.67-2.73-6.2-2.73-10.58s.84-7.94,2.51-11.14c1.67-3.19,3.9-5.86,6.68-8.02,2.78-2.15,5.99-3.77,9.63-4.84,3.64-1.08,7.39-1.61,11.25-1.61,4.45,0,8.76,.63,12.92,1.89,4.16,1.26,7.91,3.38,11.25,6.35l-11.92,13.03Z"/>
    <path class="cls-2" d="M375.57,150.92c-1.41-1.78-3.32-3.1-5.74-3.95-2.41-.85-4.7-1.28-6.85-1.28-1.26,0-2.56,.15-3.9,.45-1.34,.3-2.6,.76-3.79,1.39-1.19,.63-2.15,1.47-2.9,2.51-.74,1.04-1.11,2.3-1.11,3.79,0,2.38,.89,4.2,2.67,5.46,1.78,1.26,4.03,2.34,6.74,3.23,2.71,.89,5.62,1.78,8.74,2.67,3.12,.89,6.03,2.15,8.74,3.79,2.71,1.63,4.96,3.83,6.74,6.57,1.78,2.75,2.67,6.42,2.67,11.03s-.82,8.2-2.45,11.47c-1.63,3.27-3.84,5.98-6.63,8.13-2.78,2.15-6.01,3.75-9.69,4.79-3.67,1.04-7.56,1.56-11.64,1.56-5.12,0-9.88-.78-14.25-2.34-4.38-1.56-8.46-4.08-12.25-7.57l12.36-13.59c1.78,2.38,4.03,4.21,6.74,5.51,2.71,1.3,5.51,1.95,8.41,1.95,1.41,0,2.84-.17,4.29-.5s2.75-.83,3.9-1.5c1.15-.67,2.08-1.52,2.78-2.56,.7-1.04,1.06-2.26,1.06-3.67,0-2.38-.91-4.25-2.73-5.62-1.82-1.37-4.1-2.54-6.85-3.51-2.75-.96-5.72-1.93-8.91-2.9-3.19-.96-6.16-2.26-8.91-3.9-2.75-1.63-5.03-3.79-6.85-6.46-1.82-2.67-2.73-6.2-2.73-10.58s.84-7.94,2.51-11.14c1.67-3.19,3.9-5.86,6.68-8.02,2.78-2.15,5.99-3.77,9.63-4.84,3.64-1.08,7.39-1.61,11.25-1.61,4.45,0,8.76,.63,12.92,1.89,4.16,1.26,7.91,3.38,11.25,6.35l-11.92,13.03Z"/>
    <path class="cls-2" d="M60.18,232.66h26.06c6.31,0,12.31,.71,17.99,2.12,5.68,1.41,10.64,3.69,14.87,6.85,4.23,3.16,7.59,7.26,10.08,12.31,2.49,5.05,3.73,11.17,3.73,18.38,0,6.39-1.21,12.01-3.62,16.87-2.41,4.86-5.66,8.95-9.74,12.25-4.08,3.3-8.8,5.81-14.14,7.52-5.35,1.71-10.95,2.56-16.82,2.56h-28.4v-78.85Zm17.37,62.81h9.02c4.01,0,7.74-.41,11.19-1.23,3.45-.82,6.44-2.17,8.96-4.06,2.52-1.89,4.51-4.38,5.96-7.46,1.45-3.08,2.17-6.85,2.17-11.3,0-3.86-.72-7.22-2.17-10.08-1.45-2.86-3.4-5.21-5.85-7.07-2.45-1.86-5.33-3.25-8.63-4.18-3.3-.93-6.78-1.39-10.41-1.39h-10.25v46.77Z"/>
    <path class="cls-2" d="M140.48,272.08c0-6.31,1.06-12.03,3.17-17.15,2.12-5.12,5.07-9.48,8.85-13.09,3.79-3.6,8.28-6.37,13.48-8.3,5.2-1.93,10.88-2.9,17.04-2.9s11.84,.97,17.04,2.9c5.2,1.93,9.69,4.7,13.48,8.3,3.79,3.6,6.74,7.96,8.85,13.09,2.12,5.12,3.17,10.84,3.17,17.15s-1.06,12.03-3.17,17.15c-2.12,5.12-5.07,9.48-8.85,13.08-3.79,3.6-8.28,6.37-13.48,8.3-5.2,1.93-10.88,2.9-17.04,2.9s-11.84-.97-17.04-2.9c-5.2-1.93-9.69-4.69-13.48-8.3-3.79-3.6-6.74-7.96-8.85-13.08-2.12-5.12-3.17-10.84-3.17-17.15Zm18.04,0c0,3.71,.57,7.11,1.73,10.19,1.15,3.08,2.8,5.75,4.96,8.02,2.15,2.27,4.73,4.03,7.74,5.29,3.01,1.26,6.37,1.89,10.08,1.89s7.07-.63,10.08-1.89c3.01-1.26,5.59-3.02,7.74-5.29,2.15-2.26,3.8-4.94,4.96-8.02,1.15-3.08,1.73-6.48,1.73-10.19s-.58-7.02-1.73-10.13c-1.15-3.12-2.8-5.81-4.96-8.07-2.15-2.26-4.73-4.03-7.74-5.29-3.01-1.26-6.37-1.89-10.08-1.89s-7.07,.63-10.08,1.89c-3.01,1.26-5.59,3.03-7.74,5.29-2.15,2.27-3.81,4.96-4.96,8.07-1.15,3.12-1.73,6.5-1.73,10.13Z"/>
    <path class="cls-2" d="M237.36,232.66h23.61l33.52,54.79h.22v-54.79h17.37v78.85h-22.72l-34.41-56.13h-.22v56.13h-17.37v-78.85Z"/>
    <path class="cls-2" d="M328.79,232.66h53.57v16.04h-36.19v14.7h34.19v16.04h-34.19v16.04h38.2v16.04h-55.57v-78.85Z"/>
    <path class="cls-2" d="M431.25,232.66h29.4c3.41,0,6.85,.24,10.3,.72,3.45,.48,6.55,1.45,9.3,2.9,2.75,1.45,4.97,3.47,6.68,6.07,1.71,2.6,2.56,6.05,2.56,10.36s-1.24,8.15-3.73,11.08c-2.49,2.93-5.77,5.03-9.86,6.29v.22c2.6,.37,4.96,1.1,7.07,2.17,2.12,1.08,3.93,2.45,5.46,4.12,1.52,1.67,2.69,3.62,3.51,5.85,.82,2.23,1.23,4.6,1.23,7.13,0,4.16-.89,7.63-2.67,10.41s-4.08,5.03-6.9,6.74c-2.82,1.71-6,2.93-9.52,3.67-3.53,.74-7.04,1.11-10.52,1.11h-32.3v-78.85Zm17.37,31.52h12.58c1.34,0,2.65-.15,3.95-.45,1.3-.3,2.47-.78,3.51-1.45,1.04-.67,1.87-1.56,2.51-2.67,.63-1.11,.95-2.45,.95-4.01s-.35-2.99-1.06-4.06c-.71-1.08-1.61-1.91-2.73-2.51-1.11-.59-2.38-1.02-3.79-1.28-1.41-.26-2.78-.39-4.12-.39h-11.8v16.82Zm0,32.63h15.59c1.34,0,2.69-.15,4.06-.45,1.37-.3,2.62-.82,3.73-1.56,1.11-.74,2.02-1.71,2.73-2.9,.7-1.19,1.06-2.63,1.06-4.34,0-1.85-.46-3.36-1.39-4.51-.93-1.15-2.1-2.02-3.51-2.62-1.41-.59-2.93-1-4.57-1.23-1.63-.22-3.16-.33-4.57-.33h-13.14v17.93Z"/>
    <path class="cls-2" d="M569.9,281.1c0,4.68-.71,8.98-2.12,12.92-1.41,3.94-3.51,7.35-6.29,10.25s-6.26,5.16-10.41,6.79c-4.16,1.63-8.95,2.45-14.37,2.45s-10.32-.82-14.48-2.45c-4.16-1.63-7.63-3.9-10.41-6.79s-4.88-6.31-6.29-10.25c-1.41-3.93-2.12-8.24-2.12-12.92v-48.44h17.37v47.78c0,2.45,.39,4.71,1.17,6.79,.78,2.08,1.87,3.88,3.29,5.4,1.41,1.52,3.1,2.71,5.07,3.56,1.97,.85,4.1,1.28,6.4,1.28s4.42-.43,6.35-1.28c1.93-.85,3.6-2.04,5.01-3.56,1.41-1.52,2.51-3.32,3.29-5.4,.78-2.08,1.17-4.34,1.17-6.79v-47.78h17.37v48.44Z"/>
    <path class="cls-2" d="M601.19,248.02h-22.5v-15.37h62.36v15.37h-22.5v63.48h-17.37v-63.48Z"/>
    <path class="cls-2" d="M665.11,248.02h-22.5v-15.37h62.36v15.37h-22.5v63.48h-17.37v-63.48Z"/>
    <path class="cls-2" d="M709.55,272.08c0-6.31,1.06-12.03,3.17-17.15,2.12-5.12,5.07-9.48,8.85-13.09,3.79-3.6,8.28-6.37,13.48-8.3,5.2-1.93,10.88-2.9,17.04-2.9s11.84,.97,17.04,2.9c5.2,1.93,9.69,4.7,13.48,8.3,3.79,3.6,6.74,7.96,8.85,13.09,2.12,5.12,3.17,10.84,3.17,17.15s-1.06,12.03-3.17,17.15c-2.12,5.12-5.07,9.48-8.85,13.08-3.79,3.6-8.28,6.37-13.48,8.3-5.2,1.93-10.88,2.9-17.04,2.9s-11.84-.97-17.04-2.9c-5.2-1.93-9.69-4.69-13.48-8.3-3.79-3.6-6.74-7.96-8.85-13.08-2.12-5.12-3.17-10.84-3.17-17.15Zm18.04,0c0,3.71,.57,7.11,1.73,10.19,1.15,3.08,2.8,5.75,4.96,8.02,2.15,2.27,4.73,4.03,7.74,5.29,3.01,1.26,6.37,1.89,10.08,1.89s7.07-.63,10.08-1.89c3.01-1.26,5.59-3.02,7.74-5.29,2.15-2.26,3.8-4.94,4.96-8.02,1.15-3.08,1.73-6.48,1.73-10.19s-.58-7.02-1.73-10.13c-1.15-3.12-2.8-5.81-4.96-8.07-2.15-2.26-4.73-4.03-7.74-5.29-3.01-1.26-6.37-1.89-10.08-1.89s-7.07,.63-10.08,1.89c-3.01,1.26-5.59,3.03-7.74,5.29-2.15,2.27-3.81,4.96-4.96,8.07-1.15,3.12-1.73,6.5-1.73,10.13Z"/>
    <path class="cls-2" d="M806.43,232.66h23.61l33.52,54.79h.22v-54.79h17.37v78.85h-22.72l-34.41-56.13h-.22v56.13h-17.37v-78.85Z"/>
  </g>
  <g>
    <path class="cls-4" d="M78.37,69.98h7.58l18.1,41.6h-10.34l-3.58-8.81h-16.16l-3.47,8.81h-10.11l17.98-41.6Zm3.53,12.1l-5.05,12.93h10.17l-5.11-12.93Z"/>
    <path class="cls-4" d="M108.57,69.98h9.17v33.14h16.98v8.46h-26.15v-41.6Z"/>
    <path class="cls-4" d="M140.12,69.98h9.17v33.14h16.98v8.46h-26.15v-41.6Z"/>
    <path class="cls-4" d="M189.06,69.98h27.91v8.46h-18.74v8.46h17.33v8.46h-17.33v16.22h-9.17v-41.6Z"/>
    <path class="cls-4" d="M258.63,95.54c0,2.47-.37,4.74-1.12,6.82s-1.85,3.88-3.32,5.41c-1.47,1.53-3.3,2.72-5.49,3.58-2.19,.86-4.72,1.29-7.58,1.29s-5.45-.43-7.64-1.29c-2.19-.86-4.02-2.06-5.49-3.58-1.47-1.53-2.58-3.33-3.32-5.41-.75-2.08-1.12-4.35-1.12-6.82v-25.56h9.17v25.21c0,1.29,.21,2.49,.62,3.58s.99,2.05,1.73,2.85c.74,.8,1.63,1.43,2.67,1.88,1.04,.45,2.16,.68,3.38,.68s2.33-.23,3.35-.68c1.02-.45,1.9-1.08,2.64-1.88,.74-.8,1.32-1.75,1.73-2.85s.62-2.29,.62-3.58v-25.21h9.17v25.56Z"/>
    <path class="cls-4" d="M267.44,69.98h9.17v33.14h16.98v8.46h-26.15v-41.6Z"/>
    <path class="cls-4" d="M298.99,69.98h9.17v33.14h16.98v8.46h-26.15v-41.6Z"/>
    <path class="cls-4" d="M338.65,95.24c0-1.18,.16-2.17,.47-3,.31-.82,.84-1.59,1.59-2.29,1.1-1.06,2.1-1.98,3.03-2.76,.92-.78,1.71-1.52,2.38-2.2,.67-.68,1.18-1.33,1.56-1.94s.56-1.24,.56-1.91c0-1.29-.4-2.3-1.2-3.03-.8-.72-1.81-1.09-3.03-1.09-1.84,0-3.24,.51-4.2,1.53-.96,1.02-1.5,2.25-1.62,3.7l-9.05-.59c.43-4.15,1.96-7.32,4.58-9.49s5.99-3.26,10.11-3.26c1.8,0,3.5,.25,5.08,.73,1.59,.49,2.99,1.22,4.2,2.2,1.21,.98,2.17,2.19,2.88,3.64,.71,1.45,1.06,3.11,1.06,4.99,0,1.14-.12,2.16-.35,3.08-.23,.92-.64,1.83-1.2,2.73-.57,.9-1.31,1.81-2.23,2.73s-2.09,1.93-3.5,3.03c-.9,.71-1.51,1.39-1.82,2.06s-.47,1.33-.47,2v1.7h-8.81v-2.58Zm-1,11.28c0-.74,.14-1.45,.41-2.12,.27-.67,.66-1.24,1.15-1.73s1.07-.87,1.73-1.15c.67-.27,1.37-.41,2.11-.41s1.45,.14,2.12,.41c.67,.27,1.24,.66,1.73,1.15,.49,.49,.87,1.07,1.15,1.73,.27,.67,.41,1.37,.41,2.12s-.14,1.45-.41,2.12c-.27,.67-.66,1.24-1.15,1.73s-1.07,.87-1.73,1.15-1.37,.41-2.12,.41-1.45-.14-2.11-.41c-.67-.27-1.24-.66-1.73-1.15-.49-.49-.87-1.07-1.15-1.73-.28-.67-.41-1.37-.41-2.12Z"/>
  </g>
  <g>
    <path class="cls-4" d="M72.11,350.72h-11.87v-8.11h32.9v8.11h-11.87v33.49h-9.17v-33.49Z"/>
    <path class="cls-4" d="M95.55,363.41c0-3.33,.56-6.34,1.67-9.05,1.12-2.7,2.67-5,4.67-6.9,2-1.9,4.37-3.36,7.11-4.38,2.74-1.02,5.74-1.53,8.99-1.53s6.25,.51,8.99,1.53,5.11,2.48,7.11,4.38c2,1.9,3.55,4.2,4.67,6.9s1.67,5.72,1.67,9.05-.56,6.35-1.67,9.05c-1.12,2.7-2.67,5-4.67,6.9-2,1.9-4.37,3.36-7.11,4.38-2.74,1.02-5.74,1.53-8.99,1.53s-6.25-.51-8.99-1.53c-2.74-1.02-5.11-2.48-7.11-4.38-2-1.9-3.55-4.2-4.67-6.9-1.12-2.7-1.67-5.72-1.67-9.05Zm9.52,0c0,1.96,.3,3.75,.91,5.38,.61,1.63,1.48,3.04,2.61,4.23,1.14,1.2,2.5,2.12,4.08,2.79s3.36,1,5.32,1,3.73-.33,5.32-1,2.95-1.6,4.08-2.79c1.14-1.19,2.01-2.6,2.61-4.23,.61-1.62,.91-3.42,.91-5.38s-.3-3.7-.91-5.35c-.61-1.64-1.48-3.06-2.61-4.26-1.14-1.19-2.5-2.12-4.08-2.79s-3.36-1-5.32-1-3.73,.33-5.32,1-2.95,1.6-4.08,2.79c-1.14,1.2-2.01,2.62-2.61,4.26-.61,1.65-.91,3.43-.91,5.35Z"/>
    <path class="cls-4" d="M164.41,342.61h28.26v8.46h-19.09v7.75h18.04v8.46h-18.04v8.46h20.15v8.46h-29.32v-41.6Z"/>
    <path class="cls-4" d="M201.07,342.61h12.46l17.69,28.91h.12v-28.91h9.17v41.6h-11.99l-18.16-29.61h-.12v29.61h-9.17v-41.6Z"/>
    <path class="cls-4" d="M248.95,342.61h13.75c3.33,0,6.49,.37,9.49,1.12,3,.75,5.61,1.95,7.84,3.61,2.23,1.67,4,3.83,5.32,6.49,1.31,2.66,1.97,5.9,1.97,9.69,0,3.37-.64,6.34-1.91,8.9-1.27,2.57-2.99,4.72-5.14,6.46-2.15,1.74-4.64,3.07-7.46,3.97-2.82,.9-5.78,1.35-8.87,1.35h-14.98v-41.6Zm9.17,33.14h4.76c2.12,0,4.08-.21,5.9-.65,1.82-.43,3.4-1.15,4.73-2.14,1.33-1,2.38-2.31,3.14-3.94,.76-1.62,1.15-3.61,1.15-5.96,0-2.04-.38-3.81-1.15-5.32-.76-1.51-1.79-2.75-3.08-3.73-1.29-.98-2.81-1.71-4.55-2.2-1.74-.49-3.58-.73-5.49-.73h-5.41v24.68Z"/>
    <path class="cls-4" d="M321.16,366.47l-15.63-23.85h11.4l8.81,15.57,9.34-15.57h10.87l-15.63,23.85v17.74h-9.17v-17.74Z"/>
    <path class="cls-4" d="M346.78,363.41c0-3.33,.56-6.34,1.67-9.05,1.12-2.7,2.67-5,4.67-6.9,2-1.9,4.37-3.36,7.11-4.38,2.74-1.02,5.74-1.53,8.99-1.53s6.25,.51,8.99,1.53,5.11,2.48,7.11,4.38c2,1.9,3.55,4.2,4.67,6.9s1.67,5.72,1.67,9.05-.56,6.35-1.67,9.05c-1.12,2.7-2.67,5-4.67,6.9-2,1.9-4.37,3.36-7.11,4.38-2.74,1.02-5.74,1.53-8.99,1.53s-6.25-.51-8.99-1.53c-2.74-1.02-5.11-2.48-7.11-4.38-2-1.9-3.55-4.2-4.67-6.9-1.12-2.7-1.67-5.72-1.67-9.05Zm9.52,0c0,1.96,.3,3.75,.91,5.38,.61,1.63,1.48,3.04,2.61,4.23,1.14,1.2,2.5,2.12,4.08,2.79s3.36,1,5.32,1,3.73-.33,5.32-1,2.95-1.6,4.08-2.79c1.14-1.19,2.01-2.6,2.61-4.23,.61-1.62,.91-3.42,.91-5.38s-.3-3.7-.91-5.35c-.61-1.64-1.48-3.06-2.61-4.26-1.14-1.19-2.5-2.12-4.08-2.79s-3.36-1-5.32-1-3.73,.33-5.32,1-2.95,1.6-4.08,2.79c-1.14,1.2-2.01,2.62-2.61,4.26-.61,1.65-.91,3.43-.91,5.35Z"/>
    <path class="cls-4" d="M432.97,368.17c0,2.47-.37,4.74-1.12,6.82-.75,2.08-1.85,3.88-3.32,5.41-1.47,1.53-3.3,2.72-5.49,3.58-2.19,.86-4.72,1.29-7.58,1.29s-5.45-.43-7.64-1.29c-2.19-.86-4.02-2.06-5.49-3.58-1.47-1.53-2.58-3.33-3.32-5.41-.74-2.08-1.12-4.35-1.12-6.82v-25.56h9.17v25.21c0,1.29,.21,2.49,.62,3.58s.99,2.05,1.73,2.85c.74,.8,1.63,1.43,2.67,1.88s2.16,.68,3.38,.68,2.33-.23,3.35-.68,1.9-1.08,2.64-1.88c.74-.8,1.32-1.75,1.73-2.85s.62-2.29,.62-3.58v-25.21h9.17v25.56Z"/>
    <path class="cls-4" d="M441.43,342.61h16.1c2.12,0,4.12,.21,6.02,.62,1.9,.41,3.56,1.1,4.99,2.06s2.57,2.25,3.41,3.88c.84,1.63,1.26,3.65,1.26,6.08,0,2.94-.76,5.44-2.29,7.49-1.53,2.06-3.76,3.36-6.7,3.91l10.58,17.57h-10.99l-8.7-16.63h-4.52v16.63h-9.17v-41.6Zm9.17,17.21h5.41c.82,0,1.69-.03,2.62-.09,.92-.06,1.75-.24,2.5-.53,.74-.29,1.36-.75,1.85-1.38,.49-.63,.73-1.51,.73-2.64,0-1.06-.22-1.9-.65-2.53-.43-.63-.98-1.11-1.64-1.44-.67-.33-1.43-.56-2.29-.68-.86-.12-1.7-.18-2.53-.18h-5.99v9.46Z"/>
    <path class="cls-4" d="M504.94,350.72h-11.87v-8.11h32.9v8.11h-11.87v33.49h-9.17v-33.49Z"/>
    <path class="cls-4" d="M530.62,342.61h16.1c2.12,0,4.12,.21,6.02,.62,1.9,.41,3.56,1.1,4.99,2.06s2.57,2.25,3.41,3.88c.84,1.63,1.26,3.65,1.26,6.08,0,2.94-.76,5.44-2.29,7.49-1.53,2.06-3.76,3.36-6.7,3.91l10.58,17.57h-10.99l-8.7-16.63h-4.52v16.63h-9.17v-41.6Zm9.17,17.21h5.41c.82,0,1.69-.03,2.62-.09,.92-.06,1.75-.24,2.5-.53,.74-.29,1.36-.75,1.85-1.38,.49-.63,.73-1.51,.73-2.64,0-1.06-.22-1.9-.65-2.53-.43-.63-.98-1.11-1.64-1.44-.67-.33-1.43-.56-2.29-.68-.86-.12-1.7-.18-2.53-.18h-5.99v9.46Z"/>
    <path class="cls-4" d="M582.38,342.61h7.58l18.1,41.6h-10.34l-3.58-8.81h-16.16l-3.47,8.81h-10.11l17.98-41.6Zm3.53,12.1l-5.05,12.93h10.16l-5.11-12.93Z"/>
    <path class="cls-4" d="M612.22,342.61h12.46l17.68,28.91h.12v-28.91h9.17v41.6h-11.99l-18.15-29.61h-.12v29.61h-9.17v-41.6Z"/>
    <path class="cls-4" d="M680.67,352.78c-.74-.94-1.75-1.64-3.03-2.09-1.27-.45-2.48-.68-3.61-.68-.67,0-1.35,.08-2.06,.24s-1.37,.4-2,.73c-.63,.33-1.14,.77-1.53,1.32-.39,.55-.59,1.21-.59,2,0,1.25,.47,2.21,1.41,2.88,.94,.67,2.12,1.23,3.55,1.7,1.43,.47,2.97,.94,4.61,1.41,1.65,.47,3.18,1.14,4.61,2,1.43,.86,2.61,2.02,3.55,3.47s1.41,3.39,1.41,5.82-.43,4.33-1.29,6.05-2.03,3.15-3.5,4.29c-1.47,1.14-3.17,1.98-5.11,2.53-1.94,.55-3.99,.82-6.14,.82-2.7,0-5.21-.41-7.52-1.23-2.31-.82-4.46-2.15-6.46-4l6.52-7.17c.94,1.25,2.12,2.22,3.55,2.91s2.91,1.03,4.44,1.03c.74,0,1.5-.09,2.26-.26,.76-.18,1.45-.44,2.06-.79,.61-.35,1.1-.8,1.47-1.35,.37-.55,.56-1.19,.56-1.94,0-1.25-.48-2.24-1.44-2.97-.96-.72-2.16-1.34-3.61-1.85-1.45-.51-3.02-1.02-4.7-1.53-1.68-.51-3.25-1.19-4.7-2.06-1.45-.86-2.65-2-3.61-3.41-.96-1.41-1.44-3.27-1.44-5.58s.44-4.19,1.32-5.88c.88-1.68,2.06-3.09,3.52-4.23,1.47-1.14,3.16-1.99,5.08-2.56,1.92-.57,3.9-.85,5.93-.85,2.35,0,4.62,.33,6.82,1,2.19,.67,4.17,1.78,5.93,3.35l-6.29,6.88Z"/>
    <path class="cls-4" d="M707.52,342.61h7.58l18.1,41.6h-10.34l-3.58-8.81h-16.16l-3.47,8.81h-10.11l17.98-41.6Zm3.53,12.1l-5.05,12.93h10.16l-5.11-12.93Z"/>
    <path class="cls-4" d="M764.57,353.42c-.9-1.1-2.01-1.94-3.32-2.53-1.31-.59-2.83-.88-4.55-.88s-3.32,.33-4.79,1-2.74,1.6-3.82,2.79c-1.08,1.2-1.92,2.62-2.53,4.26-.61,1.65-.91,3.43-.91,5.35s.3,3.75,.91,5.38c.61,1.63,1.44,3.04,2.5,4.23,1.06,1.2,2.3,2.12,3.73,2.79,1.43,.67,2.97,1,4.61,1,1.88,0,3.54-.39,4.99-1.18,1.45-.78,2.64-1.88,3.58-3.29l7.64,5.7c-1.76,2.47-4,4.29-6.7,5.46-2.7,1.18-5.48,1.76-8.34,1.76-3.25,0-6.25-.51-8.99-1.53-2.74-1.02-5.11-2.48-7.11-4.38-2-1.9-3.55-4.2-4.67-6.9-1.12-2.7-1.67-5.72-1.67-9.05s.56-6.34,1.67-9.05,2.67-5,4.67-6.9c2-1.9,4.37-3.36,7.11-4.38,2.74-1.02,5.74-1.53,8.99-1.53,1.17,0,2.4,.11,3.67,.32,1.27,.22,2.53,.56,3.76,1.03,1.23,.47,2.42,1.1,3.55,1.88,1.14,.78,2.15,1.74,3.05,2.88l-7.05,5.76Z"/>
    <path class="cls-4" d="M785.66,350.72h-11.87v-8.11h32.9v8.11h-11.87v33.49h-9.17v-33.49Z"/>
    <path class="cls-4" d="M811.22,342.61h9.17v41.6h-9.17v-41.6Z"/>
    <path class="cls-4" d="M826.5,363.41c0-3.33,.56-6.34,1.67-9.05s2.67-5,4.67-6.9c2-1.9,4.37-3.36,7.11-4.38,2.74-1.02,5.74-1.53,8.99-1.53s6.25,.51,8.99,1.53c2.74,1.02,5.11,2.48,7.11,4.38,2,1.9,3.55,4.2,4.67,6.9s1.67,5.72,1.67,9.05-.56,6.35-1.67,9.05c-1.12,2.7-2.67,5-4.67,6.9-2,1.9-4.37,3.36-7.11,4.38-2.74,1.02-5.74,1.53-8.99,1.53s-6.25-.51-8.99-1.53c-2.74-1.02-5.11-2.48-7.11-4.38-2-1.9-3.55-4.2-4.67-6.9-1.12-2.7-1.67-5.72-1.67-9.05Zm9.52,0c0,1.96,.3,3.75,.91,5.38,.61,1.63,1.48,3.04,2.61,4.23,1.14,1.2,2.5,2.12,4.08,2.79,1.59,.67,3.36,1,5.32,1s3.73-.33,5.32-1,2.95-1.6,4.08-2.79c1.14-1.19,2.01-2.6,2.62-4.23,.61-1.62,.91-3.42,.91-5.38s-.3-3.7-.91-5.35c-.61-1.64-1.48-3.06-2.62-4.26-1.14-1.19-2.5-2.12-4.08-2.79s-3.36-1-5.32-1-3.73,.33-5.32,1c-1.59,.67-2.95,1.6-4.08,2.79-1.14,1.2-2.01,2.62-2.61,4.26-.61,1.65-.91,3.43-.91,5.35Z"/>
    <path class="cls-4" d="M877.61,342.61h12.46l17.68,28.91h.12v-28.91h9.17v41.6h-11.99l-18.15-29.61h-.12v29.61h-9.17v-41.6Z"/>
  </g>
  <polygon class="cls-1" points="952.89 385.27 1117.39 462.43 1084.23 503.4 1243.91 517.4 1222.15 385.27 1182.23 423.15 917.03 230.65 952.89 385.27"/>
  <g>
    <path class="cls-6" d="M63.85,438.84c0-2.1,.35-4.01,1.06-5.72,.71-1.71,1.69-3.16,2.95-4.36,1.26-1.2,2.76-2.12,4.49-2.77,1.73-.64,3.63-.97,5.68-.97s3.95,.32,5.68,.97,3.23,1.57,4.49,2.77c1.26,1.2,2.25,2.65,2.95,4.36,.71,1.71,1.06,3.62,1.06,5.72s-.35,4.01-1.06,5.72c-.71,1.71-1.69,3.16-2.95,4.36-1.26,1.2-2.76,2.12-4.49,2.77s-3.63,.96-5.68,.96-3.95-.32-5.68-.96c-1.73-.64-3.23-1.57-4.49-2.77-1.26-1.2-2.25-2.66-2.95-4.36-.71-1.71-1.06-3.61-1.06-5.72Zm6.02,0c0,1.24,.19,2.37,.58,3.4,.38,1.03,.93,1.92,1.65,2.67,.72,.76,1.58,1.34,2.58,1.76,1,.42,2.12,.63,3.36,.63s2.36-.21,3.36-.63c1-.42,1.86-1.01,2.58-1.76,.72-.75,1.27-1.65,1.65-2.67,.38-1.03,.58-2.16,.58-3.4s-.19-2.34-.58-3.38c-.38-1.04-.94-1.94-1.65-2.69-.72-.75-1.58-1.34-2.58-1.76-1-.42-2.12-.63-3.36-.63s-2.36,.21-3.36,.63c-1,.42-1.86,1.01-2.58,1.76-.72,.76-1.27,1.65-1.65,2.69s-.58,2.17-.58,3.38Z"/>
    <path class="cls-6" d="M96.15,425.7h10.17c1.34,0,2.6,.13,3.81,.39s2.25,.69,3.16,1.3c.9,.61,1.62,1.42,2.15,2.45,.53,1.03,.8,2.31,.8,3.84,0,1.86-.48,3.43-1.45,4.73-.96,1.3-2.38,2.12-4.23,2.47l6.68,11.1h-6.94l-5.5-10.51h-2.86v10.51h-5.79v-26.29Zm5.79,10.88h3.42c.52,0,1.07-.02,1.65-.06s1.11-.15,1.58-.33c.47-.19,.86-.48,1.17-.87,.31-.4,.46-.95,.46-1.67,0-.67-.14-1.2-.41-1.6s-.62-.7-1.04-.91c-.42-.21-.9-.35-1.45-.43-.54-.07-1.08-.11-1.6-.11h-3.79v5.98Z"/>
    <path class="cls-6" d="M131.21,425.7h9.77c1.36,0,2.65,.12,3.86,.37s2.27,.67,3.17,1.28,1.62,1.42,2.15,2.45c.53,1.03,.8,2.32,.8,3.88s-.25,2.82-.74,3.86c-.5,1.04-1.18,1.87-2.04,2.49-.87,.62-1.89,1.06-3.08,1.32-1.19,.26-2.48,.39-3.86,.39h-4.23v10.25h-5.79v-26.29Zm5.79,11.14h3.86c.52,0,1.02-.05,1.5-.15,.48-.1,.92-.27,1.3-.5,.38-.23,.69-.56,.93-.96s.35-.92,.35-1.54c0-.67-.15-1.21-.46-1.62-.31-.41-.71-.72-1.19-.95s-1.02-.37-1.62-.43-1.16-.09-1.71-.09h-2.97v6.24Z"/>
    <path class="cls-6" d="M154.53,425.7h5.79v26.29h-5.79v-26.29Z"/>
    <path class="cls-6" d="M182.79,432.53c-.57-.69-1.27-1.23-2.1-1.6-.83-.37-1.79-.56-2.88-.56s-2.1,.21-3.03,.63c-.93,.42-1.73,1.01-2.41,1.76-.68,.76-1.21,1.65-1.6,2.69s-.58,2.17-.58,3.38,.19,2.37,.58,3.4c.38,1.03,.91,1.92,1.58,2.67,.67,.76,1.45,1.34,2.36,1.76,.9,.42,1.88,.63,2.92,.63,1.19,0,2.24-.25,3.16-.74,.92-.49,1.67-1.19,2.27-2.08l4.83,3.6c-1.11,1.56-2.53,2.71-4.23,3.45-1.71,.74-3.47,1.11-5.27,1.11-2.06,0-3.95-.32-5.68-.96-1.73-.64-3.23-1.57-4.49-2.77-1.26-1.2-2.25-2.66-2.95-4.36-.71-1.71-1.06-3.61-1.06-5.72s.35-4.01,1.06-5.72c.71-1.71,1.69-3.16,2.95-4.36,1.26-1.2,2.76-2.12,4.49-2.77,1.73-.64,3.63-.97,5.68-.97,.74,0,1.52,.07,2.32,.2,.8,.14,1.6,.35,2.38,.65,.78,.3,1.53,.69,2.25,1.19,.72,.5,1.36,1.1,1.93,1.82l-4.46,3.64Z"/>
    <path class="cls-6" d="M191.25,425.7h5.79v10.92l10.21-10.92h7.58l-11.7,12.22,12.7,14.07h-8.1l-10.69-12.48v12.48h-5.79v-26.29Z"/>
    <path class="cls-6" d="M237.48,425.7h4.79l11.44,26.29h-6.54l-2.26-5.57h-10.21l-2.19,5.57h-6.39l11.36-26.29Zm2.23,7.65l-3.19,8.17h6.42l-3.23-8.17Z"/>
    <path class="cls-6" d="M267.34,425.7h7.87l11.18,18.27h.07v-18.27h5.79v26.29h-7.58l-11.47-18.71h-.07v18.71h-5.79v-26.29Z"/>
    <path class="cls-6" d="M297.82,425.7h17.86v5.35h-12.07v4.9h11.4v5.35h-11.4v5.35h12.74v5.35h-18.53v-26.29Z"/>
    <path class="cls-6" d="M318.25,425.7h6.31l4.2,16.86h.07l5.5-16.86h5.38l5.46,17.3h.07l4.42-17.3h5.87l-7.69,26.29h-5.16l-5.79-18.2h-.07l-5.79,18.2h-4.98l-7.8-26.29Z"/>
    <path class="cls-6" d="M369.12,425.7h9.77c1.36,0,2.65,.12,3.86,.37s2.27,.67,3.17,1.28,1.62,1.42,2.15,2.45c.53,1.03,.8,2.32,.8,3.88s-.25,2.82-.74,3.86c-.5,1.04-1.18,1.87-2.04,2.49-.87,.62-1.89,1.06-3.08,1.32-1.19,.26-2.48,.39-3.86,.39h-4.23v10.25h-5.79v-26.29Zm5.79,11.14h3.86c.52,0,1.02-.05,1.5-.15,.48-.1,.92-.27,1.3-.5,.38-.23,.69-.56,.93-.96s.35-.92,.35-1.54c0-.67-.15-1.21-.46-1.62-.31-.41-.71-.72-1.19-.95s-1.02-.37-1.62-.43-1.16-.09-1.71-.09h-2.97v6.24Z"/>
    <path class="cls-6" d="M392.51,425.7h10.17c1.34,0,2.6,.13,3.81,.39s2.25,.69,3.16,1.3c.9,.61,1.62,1.42,2.15,2.45,.53,1.03,.8,2.31,.8,3.84,0,1.86-.48,3.43-1.45,4.73-.96,1.3-2.38,2.12-4.23,2.47l6.68,11.1h-6.94l-5.5-10.51h-2.86v10.51h-5.79v-26.29Zm5.79,10.88h3.42c.52,0,1.07-.02,1.65-.06s1.11-.15,1.58-.33c.47-.19,.86-.48,1.17-.87,.31-.4,.46-.95,.46-1.67,0-.67-.14-1.2-.41-1.6s-.62-.7-1.04-.91c-.42-.21-.9-.35-1.45-.43-.54-.07-1.08-.11-1.6-.11h-3.79v5.98Z"/>
    <path class="cls-6" d="M415.16,438.84c0-2.1,.35-4.01,1.06-5.72,.71-1.71,1.69-3.16,2.95-4.36,1.26-1.2,2.76-2.12,4.49-2.77,1.73-.64,3.63-.97,5.68-.97s3.95,.32,5.68,.97,3.23,1.57,4.49,2.77c1.26,1.2,2.25,2.65,2.95,4.36,.71,1.71,1.06,3.62,1.06,5.72s-.35,4.01-1.06,5.72c-.71,1.71-1.69,3.16-2.95,4.36-1.26,1.2-2.76,2.12-4.49,2.77s-3.63,.96-5.68,.96-3.95-.32-5.68-.96c-1.73-.64-3.23-1.57-4.49-2.77-1.26-1.2-2.25-2.66-2.95-4.36-.71-1.71-1.06-3.61-1.06-5.72Zm6.02,0c0,1.24,.19,2.37,.58,3.4,.38,1.03,.93,1.92,1.65,2.67,.72,.76,1.58,1.34,2.58,1.76,1,.42,2.12,.63,3.36,.63s2.36-.21,3.36-.63c1-.42,1.86-1.01,2.58-1.76,.72-.75,1.27-1.65,1.65-2.67,.38-1.03,.58-2.16,.58-3.4s-.19-2.34-.58-3.38c-.38-1.04-.94-1.94-1.65-2.69-.72-.75-1.58-1.34-2.58-1.76-1-.42-2.12-.63-3.36-.63s-2.36,.21-3.36,.63c-1,.42-1.86,1.01-2.58,1.76-.72,.76-1.27,1.65-1.65,2.69s-.58,2.17-.58,3.38Z"/>
    <path class="cls-6" d="M447.47,425.7h8.69c2.1,0,4.1,.24,6,.71,1.89,.47,3.55,1.23,4.96,2.28,1.41,1.05,2.53,2.42,3.36,4.1,.83,1.68,1.24,3.73,1.24,6.13,0,2.13-.4,4-1.21,5.63-.8,1.62-1.89,2.98-3.25,4.08s-2.93,1.94-4.72,2.51c-1.78,.57-3.65,.85-5.61,.85h-9.47v-26.29Zm5.79,20.94h3.01c1.34,0,2.58-.14,3.73-.41,1.15-.27,2.15-.72,2.99-1.36,.84-.63,1.5-1.46,1.99-2.49,.48-1.03,.72-2.28,.72-3.77,0-1.29-.24-2.41-.72-3.36-.48-.95-1.13-1.74-1.95-2.36-.82-.62-1.78-1.08-2.88-1.39-1.1-.31-2.26-.46-3.47-.46h-3.42v15.6Z"/>
    <path class="cls-6" d="M497.82,441.85c0,1.56-.24,3-.71,4.31-.47,1.31-1.17,2.45-2.1,3.42-.93,.97-2.08,1.72-3.47,2.27s-2.98,.82-4.79,.82-3.44-.27-4.83-.82c-1.39-.54-2.54-1.3-3.47-2.27-.93-.96-1.63-2.1-2.1-3.42-.47-1.31-.71-2.75-.71-4.31v-16.15h5.79v15.93c0,.82,.13,1.57,.39,2.27,.26,.69,.62,1.29,1.09,1.8,.47,.51,1.03,.9,1.69,1.19,.66,.28,1.37,.43,2.13,.43s1.47-.14,2.12-.43c.64-.29,1.2-.68,1.67-1.19,.47-.51,.84-1.11,1.1-1.8s.39-1.45,.39-2.27v-15.93h5.79v16.15Z"/>
    <path class="cls-6" d="M520.36,432.53c-.57-.69-1.27-1.23-2.1-1.6-.83-.37-1.79-.56-2.88-.56s-2.1,.21-3.03,.63c-.93,.42-1.73,1.01-2.41,1.76-.68,.76-1.21,1.65-1.6,2.69s-.58,2.17-.58,3.38,.19,2.37,.58,3.4c.38,1.03,.91,1.92,1.58,2.67,.67,.76,1.45,1.34,2.36,1.76,.9,.42,1.88,.63,2.92,.63,1.19,0,2.24-.25,3.16-.74,.92-.49,1.67-1.19,2.26-2.08l4.83,3.6c-1.11,1.56-2.52,2.71-4.23,3.45-1.71,.74-3.47,1.11-5.27,1.11-2.05,0-3.95-.32-5.68-.96s-3.23-1.57-4.49-2.77c-1.26-1.2-2.25-2.66-2.95-4.36-.71-1.71-1.06-3.61-1.06-5.72s.35-4.01,1.06-5.72c.71-1.71,1.69-3.16,2.95-4.36,1.26-1.2,2.76-2.12,4.49-2.77s3.63-.97,5.68-.97c.74,0,1.52,.07,2.32,.2,.8,.14,1.6,.35,2.38,.65,.78,.3,1.53,.69,2.25,1.19,.72,.5,1.36,1.1,1.93,1.82l-4.46,3.64Z"/>
    <path class="cls-6" d="M533.69,430.82h-7.5v-5.12h20.79v5.12h-7.5v21.17h-5.79v-21.17Z"/>
    <path class="cls-6" d="M566,430.82h-7.5v-5.12h20.79v5.12h-7.5v21.17h-5.79v-21.17Z"/>
    <path class="cls-6" d="M580.81,438.84c0-2.1,.35-4.01,1.06-5.72,.71-1.71,1.69-3.16,2.95-4.36,1.26-1.2,2.76-2.12,4.49-2.77,1.73-.64,3.63-.97,5.68-.97s3.95,.32,5.68,.97,3.23,1.57,4.49,2.77c1.26,1.2,2.25,2.65,2.95,4.36,.71,1.71,1.06,3.62,1.06,5.72s-.35,4.01-1.06,5.72c-.71,1.71-1.69,3.16-2.95,4.36-1.26,1.2-2.76,2.12-4.49,2.77s-3.63,.96-5.68,.96-3.95-.32-5.68-.96c-1.73-.64-3.23-1.57-4.49-2.77-1.26-1.2-2.25-2.66-2.95-4.36-.71-1.71-1.06-3.61-1.06-5.72Zm6.02,0c0,1.24,.19,2.37,.58,3.4,.38,1.03,.93,1.92,1.65,2.67,.72,.76,1.58,1.34,2.58,1.76,1,.42,2.12,.63,3.36,.63s2.36-.21,3.36-.63c1-.42,1.86-1.01,2.58-1.76,.72-.75,1.27-1.65,1.65-2.67,.38-1.03,.58-2.16,.58-3.4s-.19-2.34-.58-3.38c-.38-1.04-.94-1.94-1.65-2.69-.72-.75-1.58-1.34-2.58-1.76-1-.42-2.12-.63-3.36-.63s-2.36,.21-3.36,.63c-1,.42-1.86,1.01-2.58,1.76-.72,.76-1.27,1.65-1.65,2.69s-.58,2.17-.58,3.38Z"/>
    <path class="cls-6" d="M624.33,425.7h5.79v10.92l10.21-10.92h7.58l-11.7,12.22,12.7,14.07h-8.09l-10.69-12.48v12.48h-5.79v-26.29Z"/>
    <path class="cls-6" d="M651.14,425.7h17.86v5.35h-12.07v4.9h11.4v5.35h-11.4v5.35h12.74v5.35h-18.53v-26.29Z"/>
    <path class="cls-6" d="M674.54,425.7h17.86v5.35h-12.07v4.9h11.4v5.35h-11.4v5.35h12.74v5.35h-18.53v-26.29Z"/>
    <path class="cls-6" d="M697.71,425.7h9.77c1.36,0,2.65,.12,3.86,.37s2.27,.67,3.17,1.28c.9,.61,1.62,1.42,2.15,2.45,.53,1.03,.8,2.32,.8,3.88s-.25,2.82-.74,3.86c-.5,1.04-1.18,1.87-2.04,2.49-.87,.62-1.89,1.06-3.08,1.32s-2.48,.39-3.86,.39h-4.23v10.25h-5.79v-26.29Zm5.79,11.14h3.86c.52,0,1.02-.05,1.5-.15,.48-.1,.92-.27,1.3-.5,.38-.23,.69-.56,.93-.96,.23-.41,.35-.92,.35-1.54,0-.67-.16-1.21-.46-1.62-.31-.41-.71-.72-1.19-.95s-1.02-.37-1.62-.43c-.59-.06-1.16-.09-1.71-.09h-2.97v6.24Z"/>
    <path class="cls-6" d="M732.09,425.7h10.17c1.34,0,2.6,.13,3.81,.39,1.2,.26,2.25,.69,3.16,1.3s1.62,1.42,2.15,2.45c.53,1.03,.8,2.31,.8,3.84,0,1.86-.48,3.43-1.45,4.73-.96,1.3-2.38,2.12-4.23,2.47l6.68,11.1h-6.94l-5.5-10.51h-2.86v10.51h-5.79v-26.29Zm5.79,10.88h3.42c.52,0,1.07-.02,1.65-.06,.58-.04,1.11-.15,1.58-.33,.47-.19,.86-.48,1.17-.87,.31-.4,.46-.95,.46-1.67,0-.67-.14-1.2-.41-1.6s-.62-.7-1.04-.91c-.42-.21-.9-.35-1.45-.43s-1.08-.11-1.6-.11h-3.79v5.98Z"/>
    <path class="cls-6" d="M756.38,425.7h17.86v5.35h-12.07v4.9h11.4v5.35h-11.4v5.35h12.74v5.35h-18.53v-26.29Z"/>
    <path class="cls-6" d="M779.77,425.7h17.64v5.35h-11.85v5.35h10.95v5.35h-10.95v10.25h-5.79v-26.29Z"/>
    <path class="cls-6" d="M801.5,425.7h5.79v26.29h-5.79v-26.29Z"/>
    <path class="cls-6" d="M812.78,425.7h5.79v20.94h10.73v5.35h-16.52v-26.29Z"/>
    <path class="cls-6" d="M832.72,425.7h5.79v20.94h10.73v5.35h-16.52v-26.29Z"/>
    <path class="cls-6" d="M852.37,425.7h5.79v26.29h-5.79v-26.29Z"/>
    <path class="cls-6" d="M863.43,425.7h7.87l11.18,18.27h.08v-18.27h5.79v26.29h-7.58l-11.47-18.71h-.07v18.71h-5.79v-26.29Z"/>
    <path class="cls-6" d="M917.5,450.13c-1.71,.89-3.49,1.54-5.35,1.93s-3.75,.59-5.68,.59c-2.05,0-3.95-.32-5.68-.96-1.73-.64-3.23-1.57-4.49-2.77-1.26-1.2-2.25-2.66-2.95-4.36-.71-1.71-1.06-3.61-1.06-5.72s.35-4.01,1.06-5.72c.71-1.71,1.69-3.16,2.95-4.36,1.26-1.2,2.76-2.12,4.49-2.77,1.73-.64,3.63-.97,5.68-.97s4.04,.25,5.81,.76c1.77,.51,3.32,1.38,4.66,2.62l-4.08,4.46c-.79-.82-1.68-1.44-2.67-1.86-.99-.42-2.23-.63-3.71-.63-1.24,0-2.36,.21-3.36,.63s-1.86,1.01-2.58,1.76c-.72,.76-1.27,1.65-1.65,2.69s-.58,2.17-.58,3.38,.19,2.37,.58,3.4c.38,1.03,.93,1.92,1.65,2.67,.72,.76,1.58,1.34,2.58,1.76,1,.42,2.12,.63,3.36,.63s2.35-.14,3.27-.43c.92-.29,1.65-.58,2.19-.87v-4.27h-4.72v-5.35h10.29v13.74Z"/>
  </g>
  <polygon class="cls-5" points="155.61 482.4 174.25 482.4 174.25 511.96 186.72 511.96 163.23 537.4 144.16 513.82 159.14 509.9 155.61 482.4"/>
  <polygon class="cls-5" points="527.61 482.4 546.25 482.4 546.25 511.96 558.72 511.96 535.23 537.4 516.16 513.82 531.14 509.9 527.61 482.4"/>
  <polygon class="cls-5" points="881.61 482.4 900.25 482.4 900.25 511.96 912.72 511.96 889.23 537.4 870.16 513.82 885.14 509.9 881.61 482.4"/>
  <circle class="cls-1" cx="468.5" cy="168.5" r="44.5"/>
</svg>