<?xml version="1.0" encoding="UTF-8"?>
<svg id="Layer_1" data-name="Layer 1" xmlns="http://www.w3.org/2000/svg" viewBox="0 0 1280 554" preserveAspectRatio="none">
  <defs>
    <style>
      .cls-1 {
        fill: #ef3f32;
      }

      .cls-2 {
        fill: #ccebf5;
      }

      .cls-3 {
        fill: #4e7bbe;
      }
    </style>
  </defs>
  <rect class="cls-2" x=".72" y=".08" width="1279" height="554"/>
  <g>
    <path class="cls-1" d="M95.26,143.9h9.67l23.09,53.08h-13.19l-4.57-11.25h-20.62l-4.42,11.25h-12.89l22.94-53.08Zm4.5,15.44l-6.45,16.49h12.97l-6.52-16.49Z"/>
    <path class="cls-1" d="M133.79,143.9h11.69v42.28h21.67v10.79h-33.36v-53.08Z"/>
    <path class="cls-1" d="M174.05,143.9h11.69v42.28h21.67v10.79h-33.36v-53.08Z"/>
    <path class="cls-1" d="M236.04,143.9h17.54c4.25,0,8.28,.48,12.11,1.42,3.82,.95,7.16,2.49,10.01,4.61,2.85,2.12,5.11,4.89,6.78,8.28,1.67,3.4,2.51,7.52,2.51,12.37,0,4.3-.81,8.08-2.44,11.36-1.62,3.27-3.81,6.02-6.56,8.25-2.75,2.22-5.92,3.91-9.52,5.06-3.6,1.15-7.37,1.72-11.32,1.72h-19.12v-53.08Zm11.7,42.28h6.07c2.7,0,5.21-.27,7.53-.83,2.32-.55,4.34-1.46,6.04-2.74,1.7-1.27,3.04-2.95,4.01-5.02,.97-2.07,1.46-4.61,1.46-7.61,0-2.6-.49-4.86-1.46-6.78-.97-1.92-2.29-3.51-3.94-4.76-1.65-1.25-3.59-2.19-5.81-2.81s-4.56-.94-7.01-.94h-6.9v31.49Z"/>
    <path class="cls-1" d="M290.09,170.44c0-4.25,.71-8.1,2.14-11.54,1.42-3.45,3.41-6.38,5.96-8.81,2.55-2.42,5.57-4.29,9.07-5.58,3.5-1.3,7.32-1.95,11.47-1.95s7.97,.65,11.47,1.95c3.5,1.3,6.52,3.16,9.07,5.58,2.55,2.42,4.54,5.36,5.96,8.81,1.42,3.45,2.14,7.3,2.14,11.54s-.71,8.1-2.14,11.54c-1.42,3.45-3.41,6.38-5.96,8.81s-5.57,4.29-9.07,5.58c-3.5,1.3-7.32,1.95-11.47,1.95s-7.97-.65-11.47-1.95c-3.5-1.3-6.52-3.16-9.07-5.58s-4.54-5.36-5.96-8.81c-1.42-3.45-2.14-7.3-2.14-11.54Zm12.14,0c0,2.5,.39,4.79,1.16,6.86,.77,2.07,1.89,3.87,3.34,5.4,1.45,1.53,3.19,2.71,5.21,3.56,2.02,.85,4.29,1.27,6.78,1.27s4.76-.42,6.79-1.27c2.02-.85,3.76-2.04,5.21-3.56,1.45-1.52,2.56-3.32,3.34-5.4,.77-2.07,1.16-4.36,1.16-6.86s-.39-4.72-1.16-6.82c-.78-2.1-1.89-3.91-3.34-5.43-1.45-1.52-3.19-2.71-5.21-3.56-2.02-.85-4.29-1.27-6.79-1.27s-4.76,.43-6.78,1.27c-2.02,.85-3.76,2.04-5.21,3.56-1.45,1.52-2.56,3.34-3.34,5.43-.78,2.1-1.16,4.37-1.16,6.82Z"/>
    <path class="cls-1" d="M355.31,143.9h15.89l22.57,36.88h.15v-36.88h11.7v53.08h-15.29l-23.17-37.78h-.15v37.78h-11.7v-53.08Z"/>
    <path class="cls-1" d="M416.86,143.9h36.06v10.79h-24.36v9.9h23.01v10.79h-23.01v10.8h25.71v10.79h-37.41v-53.08Z"/>
    <path class="cls-1" d="M462.44,190.53c0-.95,.17-1.85,.52-2.7,.35-.85,.84-1.59,1.46-2.21,.62-.62,1.36-1.11,2.21-1.46,.85-.35,1.75-.52,2.7-.52s1.85,.17,2.7,.52c.85,.35,1.59,.84,2.21,1.46s1.11,1.36,1.46,2.21c.35,.85,.53,1.75,.53,2.7s-.18,1.85-.53,2.7c-.35,.85-.84,1.59-1.46,2.21-.62,.63-1.36,1.11-2.21,1.46-.85,.35-1.75,.52-2.7,.52s-1.85-.18-2.7-.52c-.85-.35-1.59-.84-2.21-1.46-.62-.62-1.11-1.36-1.46-2.21-.35-.85-.52-1.75-.52-2.7Z"/>
    <path class="cls-3" d="M88.06,242.77h-15.14v-10.34h41.98v10.34h-15.14v42.73h-11.69v-42.73Z"/>
    <path class="cls-3" d="M120.82,232.43h11.7v19.79h22.71v-19.79h11.7v53.08h-11.7v-22.94h-22.71v22.94h-11.7v-53.08Z"/>
    <path class="cls-3" d="M195.19,232.43h9.67l23.09,53.08h-13.19l-4.57-11.25h-20.62l-4.42,11.25h-12.89l22.94-53.08Zm4.5,15.44l-6.45,16.49h12.97l-6.52-16.49Z"/>
    <path class="cls-3" d="M233.27,232.43h15.89l22.57,36.88h.15v-36.88h11.7v53.08h-15.29l-23.17-37.78h-.15v37.78h-11.7v-53.08Z"/>
    <path class="cls-3" d="M294.82,232.43h11.69v22.04l20.62-22.04h15.29l-23.61,24.66,25.64,28.41h-16.34l-21.59-25.19v25.19h-11.69v-53.08Z"/>
    <path class="cls-3" d="M374.73,245.4c-.95-1.2-2.24-2.09-3.86-2.66-1.62-.57-3.16-.86-4.61-.86-.85,0-1.72,.1-2.62,.3-.9,.2-1.75,.51-2.55,.94-.8,.42-1.45,.99-1.95,1.69-.5,.7-.75,1.55-.75,2.55,0,1.6,.6,2.82,1.8,3.67,1.2,.85,2.71,1.57,4.54,2.17,1.82,.6,3.79,1.2,5.88,1.8,2.1,.6,4.06,1.45,5.88,2.55,1.82,1.1,3.34,2.58,4.54,4.42,1.2,1.85,1.8,4.32,1.8,7.42s-.55,5.52-1.65,7.72c-1.1,2.2-2.59,4.02-4.46,5.47-1.87,1.45-4.05,2.52-6.52,3.22-2.47,.7-5.09,1.05-7.83,1.05-3.45,0-6.65-.53-9.6-1.58-2.95-1.05-5.7-2.75-8.25-5.1l8.32-9.15c1.2,1.6,2.71,2.84,4.54,3.71,1.82,.88,3.71,1.31,5.66,1.31,.95,0,1.91-.11,2.89-.34s1.85-.56,2.62-1.01c.77-.45,1.4-1.02,1.87-1.72,.47-.7,.71-1.52,.71-2.47,0-1.6-.61-2.86-1.84-3.79-1.22-.92-2.76-1.71-4.61-2.36-1.85-.65-3.85-1.3-6-1.95-2.15-.65-4.15-1.52-6-2.62-1.85-1.1-3.39-2.55-4.61-4.35-1.23-1.8-1.84-4.17-1.84-7.12s.56-5.35,1.69-7.5c1.12-2.15,2.62-3.95,4.5-5.4,1.87-1.45,4.04-2.54,6.48-3.26,2.45-.72,4.97-1.09,7.57-1.09,3,0,5.9,.43,8.7,1.27,2.8,.85,5.32,2.27,7.57,4.27l-8.02,8.77Z"/>
    <path class="cls-3" d="M414.16,232.43h35.61v10.79h-23.91v10.79h22.12v10.8h-22.12v20.69h-11.69v-53.08Z"/>
    <path class="cls-3" d="M455.32,258.96c0-4.25,.71-8.1,2.14-11.54,1.42-3.45,3.41-6.38,5.96-8.81,2.55-2.42,5.57-4.29,9.07-5.58,3.5-1.3,7.32-1.95,11.47-1.95s7.97,.65,11.47,1.95c3.5,1.3,6.52,3.16,9.07,5.58,2.55,2.42,4.54,5.36,5.96,8.81,1.42,3.45,2.14,7.3,2.14,11.54s-.71,8.1-2.14,11.54c-1.42,3.45-3.41,6.38-5.96,8.81s-5.57,4.29-9.07,5.58c-3.5,1.3-7.32,1.95-11.47,1.95s-7.97-.65-11.47-1.95c-3.5-1.3-6.52-3.16-9.07-5.58s-4.54-5.36-5.96-8.81c-1.42-3.45-2.14-7.3-2.14-11.54Zm12.14,0c0,2.5,.39,4.79,1.16,6.86,.77,2.07,1.89,3.87,3.34,5.4,1.45,1.53,3.19,2.71,5.21,3.56,2.02,.85,4.29,1.27,6.78,1.27s4.76-.42,6.79-1.27c2.02-.85,3.76-2.04,5.21-3.56,1.45-1.52,2.56-3.32,3.34-5.4,.77-2.07,1.16-4.36,1.16-6.86s-.39-4.72-1.16-6.82c-.78-2.1-1.89-3.91-3.34-5.43-1.45-1.52-3.19-2.71-5.21-3.56-2.02-.85-4.29-1.27-6.79-1.27s-4.76,.43-6.78,1.27c-2.02,.85-3.76,2.04-5.21,3.56-1.45,1.52-2.56,3.34-3.34,5.43-.78,2.1-1.16,4.37-1.16,6.82Z"/>
    <path class="cls-3" d="M520.53,232.43h20.54c2.7,0,5.26,.26,7.68,.79,2.42,.52,4.55,1.4,6.37,2.62s3.27,2.87,4.35,4.95c1.07,2.07,1.61,4.66,1.61,7.76,0,3.75-.97,6.93-2.92,9.56s-4.8,4.29-8.55,4.99l13.49,22.42h-14.02l-11.1-21.22h-5.77v21.22h-11.7v-53.08Zm11.7,21.96h6.9c1.05,0,2.16-.04,3.34-.11,1.17-.08,2.24-.3,3.19-.67,.95-.38,1.74-.96,2.36-1.76,.62-.8,.94-1.92,.94-3.37,0-1.35-.28-2.42-.82-3.22-.55-.8-1.25-1.41-2.1-1.84-.85-.42-1.82-.71-2.92-.86-1.1-.15-2.17-.22-3.22-.22h-7.65v12.07Z"/>
    <path class="cls-3" d="M77.79,320.95h20.54c2.7,0,5.26,.26,7.68,.79,2.42,.52,4.55,1.4,6.37,2.62s3.27,2.87,4.35,4.95c1.07,2.07,1.61,4.66,1.61,7.76,0,3.75-.97,6.93-2.92,9.56s-4.8,4.29-8.55,4.99l13.49,22.42h-14.02l-11.1-21.22h-5.77v21.22h-11.7v-53.08Zm11.7,21.96h6.9c1.05,0,2.16-.04,3.34-.11,1.17-.08,2.24-.3,3.19-.67,.95-.38,1.74-.96,2.36-1.76,.62-.8,.94-1.92,.94-3.37,0-1.35-.28-2.42-.82-3.22-.55-.8-1.25-1.41-2.1-1.84-.85-.42-1.82-.71-2.92-.86-1.1-.15-2.17-.22-3.22-.22h-7.65v12.07Z"/>
    <path class="cls-3" d="M126.82,320.95h36.06v10.79h-24.36v9.9h23.01v10.79h-23.01v10.8h25.71v10.79h-37.41v-53.08Z"/>
    <path class="cls-3" d="M174.05,320.95h35.61v10.79h-23.91v10.79h22.12v10.8h-22.12v20.69h-11.69v-53.08Z"/>
    <path class="cls-3" d="M217.9,320.95h11.69v53.08h-11.69v-53.08Z"/>
    <path class="cls-3" d="M240.69,320.95h11.69v42.28h21.67v10.79h-33.36v-53.08Z"/>
    <path class="cls-3" d="M280.95,320.95h11.69v42.28h21.67v10.79h-33.36v-53.08Z"/>
    <path class="cls-3" d="M320.6,320.95h11.69v53.08h-11.69v-53.08Z"/>
    <path class="cls-3" d="M342.94,320.95h15.89l22.57,36.88h.15v-36.88h11.7v53.08h-15.29l-23.17-37.78h-.15v37.78h-11.7v-53.08Z"/>
    <path class="cls-3" d="M452.09,370.28c-3.45,1.8-7.05,3.1-10.8,3.9-3.75,.8-7.57,1.2-11.47,1.2-4.15,0-7.97-.65-11.47-1.95s-6.52-3.16-9.07-5.58c-2.55-2.42-4.54-5.36-5.96-8.81-1.42-3.45-2.14-7.3-2.14-11.54s.71-8.1,2.14-11.54c1.42-3.45,3.41-6.38,5.96-8.81,2.55-2.42,5.57-4.29,9.07-5.58,3.5-1.3,7.32-1.95,11.47-1.95s8.16,.51,11.73,1.54,6.71,2.79,9.41,5.29l-8.25,9c-1.6-1.65-3.4-2.9-5.4-3.75-2-.85-4.5-1.27-7.5-1.27-2.5,0-4.76,.43-6.78,1.27-2.02,.85-3.76,2.04-5.21,3.56-1.45,1.52-2.56,3.34-3.34,5.43-.78,2.1-1.16,4.37-1.16,6.82s.39,4.79,1.16,6.86c.77,2.07,1.89,3.87,3.34,5.4,1.45,1.53,3.19,2.71,5.21,3.56s4.29,1.27,6.78,1.27,4.75-.29,6.6-.86c1.85-.57,3.32-1.16,4.42-1.76v-8.62h-9.52v-10.8h20.77v27.74Z"/>
    <path class="cls-3" d="M466.71,367.58c0-.95,.17-1.85,.53-2.7,.35-.85,.84-1.59,1.46-2.21,.62-.62,1.36-1.11,2.21-1.46,.85-.35,1.75-.52,2.7-.52s1.85,.17,2.7,.52c.85,.35,1.59,.84,2.21,1.46,.62,.63,1.11,1.36,1.46,2.21,.35,.85,.52,1.75,.52,2.7s-.18,1.85-.52,2.7c-.35,.85-.84,1.59-1.46,2.21-.62,.63-1.36,1.11-2.21,1.46-.85,.35-1.75,.53-2.7,.53s-1.85-.18-2.7-.53c-.85-.35-1.59-.84-2.21-1.46-.63-.62-1.11-1.36-1.46-2.21-.35-.85-.53-1.75-.53-2.7Zm12.52-11.09h-11.24v-35.53h11.24v35.53Z"/>
  </g>
</svg>